<svg width="40" height="40" viewBox="0 0 40 40" fill="none" xmlns="http://www.w3.org/2000/svg">
<path d="M33.9265 8.53909C33.9265 8.53909 33.9265 8.55159 33.9265 8.55784L26.6511 32.5518C26.541 32.9415 26.3143 33.2882 26.0015 33.5454C25.6887 33.8025 25.3047 33.9579 24.901 33.9906C24.8435 33.9956 24.786 33.9981 24.7285 33.9981C24.3502 33.9993 23.9795 33.8922 23.6601 33.6895C23.3407 33.4869 23.0859 33.197 22.9259 32.8543L18.3756 23.5162C18.3301 23.4226 18.3149 23.3172 18.3322 23.2146C18.3494 23.1119 18.3983 23.0172 18.4719 22.9437L25.7123 15.7033C25.8919 15.5142 25.9906 15.2624 25.9873 15.0016C25.9839 14.7409 25.8788 14.4917 25.6944 14.3073C25.51 14.1229 25.2609 14.0178 25.0001 14.0145C24.7393 14.0111 24.4875 14.1098 24.2985 14.2894L17.0543 21.5299C16.9808 21.6035 16.8861 21.6523 16.7834 21.6696C16.6808 21.6868 16.5753 21.6716 16.4818 21.6261L7.13496 17.0771C6.76947 16.9017 6.46588 16.6195 6.26443 16.2677C6.06299 15.9159 5.97319 15.5112 6.00695 15.1072C6.0407 14.7032 6.19641 14.3191 6.45345 14.0056C6.71048 13.6921 7.0567 13.4641 7.44623 13.3519L31.4401 6.07644H31.4589C31.8005 5.98046 32.1615 5.9771 32.5049 6.06669C32.8482 6.15629 33.1616 6.33562 33.4127 6.58628C33.6639 6.83694 33.8439 7.14991 33.9342 7.49309C34.0245 7.83626 34.0218 8.19727 33.9265 8.53909Z" fill="#343019"/>
</svg>
