<svg width="40" height="40" viewBox="0 0 40 40" fill="none" xmlns="http://www.w3.org/2000/svg">
<path d="M34 20.046C33.9956 23.4677 32.7402 26.7697 30.4702 29.33C28.2003 31.8903 25.0724 33.5322 21.6759 33.9464C21.6003 33.955 21.5237 33.9474 21.4512 33.9242C21.3787 33.901 21.312 33.8627 21.2554 33.8119C21.1988 33.761 21.1536 33.6987 21.1228 33.6291C21.0921 33.5594 21.0764 33.4841 21.0769 33.408V23.2768H24.3077C24.4553 23.2771 24.6014 23.2471 24.737 23.1886C24.8725 23.13 24.9946 23.0443 25.0956 22.9366C25.1965 22.8289 25.2743 22.7016 25.324 22.5626C25.3738 22.4236 25.3944 22.2758 25.3846 22.1285C25.3608 21.8516 25.233 21.594 25.027 21.4074C24.821 21.2208 24.5519 21.1192 24.274 21.123H21.0769V17.8922C21.0769 17.3209 21.3038 16.7731 21.7077 16.3692C22.1117 15.9652 22.6595 15.7383 23.2307 15.7383H25.3846C25.5322 15.7386 25.6784 15.7086 25.8139 15.6501C25.9494 15.5916 26.0715 15.5058 26.1725 15.3981C26.2735 15.2904 26.3512 15.1631 26.401 15.0241C26.4507 14.8851 26.4713 14.7374 26.4615 14.5901C26.4377 14.3127 26.3096 14.0546 26.1029 13.868C25.8963 13.6814 25.6266 13.58 25.3482 13.5845H23.2307C22.0883 13.5845 20.9926 14.0383 20.1847 14.8462C19.3769 15.654 18.923 16.7497 18.923 17.8922V21.123H15.6923C15.5446 21.1226 15.3985 21.1527 15.263 21.2112C15.1274 21.2697 15.0054 21.3555 14.9044 21.4632C14.8034 21.5709 14.7256 21.6982 14.6759 21.8372C14.6262 21.9762 14.6056 22.1239 14.6153 22.2712C14.6392 22.5486 14.7673 22.8067 14.9739 22.9933C15.1805 23.1799 15.4502 23.2812 15.7286 23.2768H18.923V33.4107C18.9235 33.4867 18.9079 33.5619 18.8772 33.6314C18.8465 33.7009 18.8015 33.7631 18.745 33.814C18.6885 33.8649 18.622 33.9032 18.5496 33.9265C18.4773 33.9498 18.4009 33.9575 18.3253 33.9491C14.8379 33.5244 11.6371 31.8059 9.35628 29.1337C7.0755 26.4616 5.88105 23.0305 6.00936 19.5197C6.27859 12.2504 12.1667 6.3408 19.4413 6.05811C21.3247 5.98516 23.2035 6.29281 24.9652 6.96268C26.727 7.63255 28.3355 8.65086 29.6947 9.95671C31.0538 11.2626 32.1356 12.8291 32.8753 14.5627C33.6151 16.2963 33.9976 18.1612 34 20.046Z" fill="#343019"/>
</svg>
