<svg width="40" height="40" viewBox="0 0 40 40" fill="none" xmlns="http://www.w3.org/2000/svg">
<path d="M31 7H9C8.46957 7 7.96086 7.21071 7.58579 7.58579C7.21071 7.96086 7 8.46957 7 9V31C7 31.5304 7.21071 32.0391 7.58579 32.4142C7.96086 32.7893 8.46957 33 9 33H31C31.5304 33 32.0391 32.7893 32.4142 32.4142C32.7893 32.0391 33 31.5304 33 31V9C33 8.46957 32.7893 7.96086 32.4142 7.58579C32.0391 7.21071 31.5304 7 31 7ZM16 26C16 26.2652 15.8946 26.5196 15.7071 26.7071C15.5196 26.8946 15.2652 27 15 27C14.7348 27 14.4804 26.8946 14.2929 26.7071C14.1054 26.5196 14 26.2652 14 26V18C14 17.7348 14.1054 17.4804 14.2929 17.2929C14.4804 17.1054 14.7348 17 15 17C15.2652 17 15.5196 17.1054 15.7071 17.2929C15.8946 17.4804 16 17.7348 16 18V26ZM15 16C14.7033 16 14.4133 15.912 14.1666 15.7472C13.92 15.5824 13.7277 15.3481 13.6142 15.074C13.5006 14.7999 13.4709 14.4983 13.5288 14.2074C13.5867 13.9164 13.7296 13.6491 13.9393 13.4393C14.1491 13.2296 14.4164 13.0867 14.7074 13.0288C14.9983 12.9709 15.2999 13.0006 15.574 13.1142C15.8481 13.2277 16.0824 13.42 16.2472 13.6666C16.412 13.9133 16.5 14.2033 16.5 14.5C16.5 14.8978 16.342 15.2794 16.0607 15.5607C15.7794 15.842 15.3978 16 15 16ZM27 26C27 26.2652 26.8946 26.5196 26.7071 26.7071C26.5196 26.8946 26.2652 27 26 27C25.7348 27 25.4804 26.8946 25.2929 26.7071C25.1054 26.5196 25 26.2652 25 26V21.5C25 20.837 24.7366 20.2011 24.2678 19.7322C23.7989 19.2634 23.163 19 22.5 19C21.837 19 21.2011 19.2634 20.7322 19.7322C20.2634 20.2011 20 20.837 20 21.5V26C20 26.2652 19.8946 26.5196 19.7071 26.7071C19.5196 26.8946 19.2652 27 19 27C18.7348 27 18.4804 26.8946 18.2929 26.7071C18.1054 26.5196 18 26.2652 18 26V18C18.0012 17.7551 18.0923 17.5191 18.256 17.3369C18.4197 17.1546 18.6446 17.0388 18.888 17.0114C19.1314 16.9839 19.3764 17.0468 19.5765 17.188C19.7767 17.3292 19.918 17.539 19.9738 17.7775C20.6502 17.3186 21.4389 17.0526 22.2552 17.0081C23.0714 16.9637 23.8844 17.1424 24.6067 17.5251C25.329 17.9078 25.9335 18.48 26.3551 19.1803C26.7768 19.8806 26.9997 20.6825 27 21.5V26Z" fill="#343019"/>
</svg>
