<svg width="176" height="40" viewBox="0 0 120 28" fill="none" xmlns="http://www.w3.org/2000/svg">
<g clip-path="url(#clip0_401_8883)">
<path fill-rule="evenodd" clip-rule="evenodd" d="M28.3335 7.28528C29.078 6.9769 29.876 6.81818 30.6818 6.81818C32.3093 6.81818 33.8701 7.46469 35.0209 8.61548C36.1717 9.76627 36.8182 11.3271 36.8182 12.9545C36.8182 14.582 36.1717 16.1428 35.0209 17.2936C33.8701 18.4444 32.3093 19.0909 30.6818 19.0909C29.876 19.0909 29.078 18.9322 28.3335 18.6238C27.589 18.3154 26.9126 17.8634 26.3428 17.2936C25.7729 16.7238 25.3209 16.0473 25.0126 15.3028C24.7042 14.5583 24.5455 13.7604 24.5455 12.9545C24.5455 12.1487 24.7042 11.3508 25.0126 10.6063C25.3209 9.86176 25.7729 9.1853 26.3428 8.61548C26.9126 8.04567 27.589 7.59367 28.3335 7.28528ZM30.6818 0C23.5275 0 17.7273 5.80023 17.7273 12.9545C17.7273 20.1089 23.5275 25.9091 30.6818 25.9091C37.8361 25.9091 43.6364 20.1089 43.6364 12.9545C43.6364 5.80023 37.8361 0 30.6818 0ZM99.9791 8.61548C101.13 7.46469 102.691 6.81818 104.318 6.81818C105.946 6.81818 107.506 7.46469 108.657 8.61548C109.808 9.76627 110.455 11.3271 110.455 12.9545C110.455 14.582 109.808 16.1428 108.657 17.2936C107.506 18.4444 105.946 19.0909 104.318 19.0909C102.691 19.0909 101.13 18.4444 99.9791 17.2936C98.8283 16.1428 98.1818 14.582 98.1818 12.9545C98.1818 11.3271 98.8283 9.76627 99.9791 8.61548ZM104.318 0C97.1639 0 91.3636 5.80023 91.3636 12.9545C91.3636 20.1089 97.1639 25.9091 104.318 25.9091C111.473 25.9091 117.273 20.1089 117.273 12.9545C117.273 5.80023 111.473 0 104.318 0ZM45 12.9545C45 5.80023 50.8002 0 57.9545 0H77.0455C84.1998 0 90 5.80023 90 12.9545V13.8143C89.9998 15.939 89.4772 18.0311 88.4782 19.9064L84.5455 27.2727L80.9005 25.3255C79.6827 25.7045 78.388 25.9091 77.0455 25.9091H57.9545C50.8002 25.9091 45 20.1089 45 12.9545ZM77.0455 6.81818C78.6729 6.81818 80.2337 7.46469 81.3845 8.61548C82.5353 9.76627 83.1818 11.3271 83.1818 12.9545V13.0023C83.1692 14.6215 82.5172 16.17 81.3677 17.3105C80.2183 18.451 78.6647 19.091 77.0455 19.0909H57.9545C57.1487 19.0909 56.3508 18.9322 55.6063 18.6238C54.8618 18.3154 54.1853 17.8634 53.6155 17.2936C53.0457 16.7238 52.5937 16.0473 52.2853 15.3028C51.9769 14.5583 51.8182 13.7604 51.8182 12.9545C51.8182 12.1487 51.9769 11.3508 52.2853 10.6063C52.5937 9.86176 53.0457 9.1853 53.6155 8.61548C54.1853 8.04567 54.8618 7.59367 55.6063 7.28528C56.3508 6.9769 57.1487 6.81818 57.9545 6.81818H77.0455Z" fill="#1C190B"/>
<path d="M10.2273 19.0909C9.32313 19.0909 8.45601 18.7317 7.81668 18.0924C7.17735 17.4531 6.81818 16.586 6.81818 15.6818V0H0V15.6818C0 21.33 4.57909 25.9091 10.2273 25.9091H17.7273V19.0909H10.2273Z" fill="#1C190B"/>
<path d="M120 1.70455C120 2.15662 119.82 2.59018 119.501 2.90984C119.181 3.22951 118.747 3.40909 118.295 3.40909C117.843 3.40909 117.41 3.22951 117.09 2.90984C116.77 2.59018 116.591 2.15662 116.591 1.70455C116.591 1.25247 116.77 0.818914 117.09 0.49925C117.41 0.179586 117.843 0 118.295 0C118.747 0 119.181 0.179586 119.501 0.49925C119.82 0.818914 120 1.25247 120 1.70455Z" fill="#343019"/>
</g>
<defs>
<clipPath id="clip0_401_8883">
<rect width="120" height="27.2727" fill="white"/>
</clipPath>
</defs>
</svg>
