<svg width="40" height="40" viewBox="0 0 40 40" fill="none" xmlns="http://www.w3.org/2000/svg">
<path d="M30.8757 31.4813C30.7896 31.6381 30.663 31.7689 30.5091 31.8602C30.3552 31.9514 30.1796 31.9997 30.0007 32H24.0007C23.8324 31.9999 23.6669 31.9574 23.5194 31.8764C23.3719 31.7953 23.2472 31.6783 23.157 31.5362L18.0957 23.5825L10.7407 31.6725C10.5614 31.8651 10.3134 31.9793 10.0505 31.9903C9.78763 32.0012 9.53098 31.9082 9.33625 31.7312C9.14151 31.5542 9.02437 31.3076 9.01024 31.0448C8.9961 30.7821 9.0861 30.5243 9.26073 30.3275L16.982 21.8275L9.15698 9.5375C9.06061 9.3863 9.00666 9.21198 9.00078 9.03278C8.9949 8.85357 9.03732 8.67609 9.12358 8.5189C9.20984 8.36172 9.33677 8.23062 9.49109 8.13932C9.64541 8.04803 9.82143 7.99991 10.0007 8H16.0007C16.169 8.00005 16.3346 8.04258 16.4821 8.12365C16.6296 8.20471 16.7542 8.32169 16.8445 8.46375L21.9057 16.4175L29.2607 8.3275C29.44 8.1349 29.688 8.02073 29.9509 8.00974C30.2138 7.99876 30.4705 8.09185 30.6652 8.26882C30.86 8.44579 30.9771 8.69239 30.9912 8.95515C31.0054 9.21791 30.9154 9.47565 30.7407 9.6725L23.0195 18.1663L30.8445 30.4638C30.9403 30.615 30.9938 30.7892 30.9993 30.9682C31.0048 31.1472 30.9621 31.3244 30.8757 31.4813Z" fill="#343019"/>
</svg>
