<svg width="40" height="40" viewBox="0 0 40 40" fill="none" xmlns="http://www.w3.org/2000/svg">
<path d="M33.2913 12.69C33.1735 12.2292 32.9478 11.803 32.6329 11.4465C32.318 11.0901 31.9228 10.8137 31.48 10.64C27.195 8.985 20.375 9 20 9C19.625 9 12.805 8.985 8.52 10.64C8.0772 10.8137 7.68204 11.0901 7.36712 11.4465C7.05219 11.803 6.82653 12.2292 6.70875 12.69C6.385 13.9375 6 16.2175 6 20C6 23.7825 6.385 26.0625 6.70875 27.31C6.82636 27.771 7.05194 28.1975 7.36687 28.5542C7.68181 28.9108 8.07706 29.1875 8.52 29.3613C12.625 30.945 19.05 31 19.9175 31H20.0825C20.95 31 27.3787 30.945 31.48 29.3613C31.9229 29.1875 32.3182 28.9108 32.6331 28.5542C32.9481 28.1975 33.1736 27.771 33.2913 27.31C33.615 26.06 34 23.7825 34 20C34 16.2175 33.615 13.9375 33.2913 12.69ZM24.0737 20.815L19.0737 24.315C18.9242 24.4198 18.7488 24.4816 18.5666 24.4938C18.3844 24.5059 18.2023 24.4679 18.0401 24.384C17.878 24.3 17.7419 24.1732 17.6467 24.0174C17.5515 23.8615 17.5007 23.6826 17.5 23.5V16.5C17.5001 16.3171 17.5503 16.1377 17.6452 15.9813C17.7402 15.8249 17.8762 15.6976 18.0385 15.6132C18.2008 15.5287 18.3831 15.4904 18.5656 15.5024C18.7482 15.5144 18.9239 15.5763 19.0737 15.6813L24.0737 19.1813C24.2053 19.2735 24.3126 19.396 24.3868 19.5386C24.4609 19.6811 24.4996 19.8394 24.4996 20C24.4996 20.1606 24.4609 20.3189 24.3868 20.4614C24.3126 20.604 24.2053 20.7265 24.0737 20.8188V20.815Z" fill="#343019"/>
</svg>
