<svg width="103" height="52" viewBox="0 0 103 52" fill="none" xmlns="http://www.w3.org/2000/svg">
<path d="M8.03122 11.1781C7.39592 9.5635 7.67172 7.707 8.25692 6.1456C8.87262 4.5026 9.94472 2.8641 11.5471 2C11.6266 3.7314 11.0977 5.442 10.5198 6.9845C10.0001 8.3719 9.36242 9.85 8.30942 10.9974C8.14762 11.8668 8.02362 12.7338 7.93642 13.5968C8.28542 12.6851 8.85132 11.8541 9.55742 11.1859C10.4665 10.3255 11.8188 9.6616 13.0882 10.0542C12.7164 11.4574 11.8689 12.8025 10.8652 13.7461C10.0752 14.4888 9.03232 15.4405 7.80392 15.4779C7.75332 16.7479 7.78192 18.0063 7.88642 19.2476C8.05972 18.3392 8.43102 17.4838 8.96752 16.8468C9.70452 15.9715 10.7973 14.9021 12.1929 15.081C12.1167 16.5012 11.5502 17.9563 10.7613 19.0497C10.1344 19.9186 9.30682 21.026 8.13212 21.3121C8.32022 22.5318 8.58222 23.7313 8.91462 24.905C8.91782 24.0063 9.11632 23.1242 9.51012 22.4167C10.0651 21.419 10.9295 20.1748 12.3267 20.0775C12.5315 21.4708 12.254 22.9939 11.6942 24.2053C11.2468 25.1736 10.6503 26.4084 9.56302 26.9193C10.0196 28.1821 10.5599 29.4096 11.1794 30.5944C10.9619 29.5732 10.9706 28.4971 11.228 27.5289C11.5827 26.1941 12.4632 24.792 13.8768 24.3851C14.3765 25.8587 14.3076 27.5033 14.0173 29.0011C13.7784 30.2343 13.309 31.6827 12.2568 32.4838C12.9447 33.5939 13.7057 34.6593 14.5356 35.673C14.0897 34.6788 13.8681 33.5915 13.987 32.596C14.1602 31.1458 14.5677 29.5944 16.049 28.8212C16.8894 30.2712 17.0841 31.8979 17.1555 33.5046C17.2132 34.8035 17.0261 36.4056 16.124 37.4623C17.1163 38.494 18.187 39.4596 19.3306 40.35C18.5923 39.4029 18.0753 38.2915 17.9658 37.1924C17.8112 35.6395 17.8868 33.93 19.2649 32.7904C20.4435 34.0214 21.1468 35.8343 21.4915 37.4089C21.7963 38.8011 22.1145 40.4489 21.3888 41.819C22.8442 42.769 24.3979 43.606 26.0406 44.3148C24.8847 43.4911 23.9385 42.361 23.4877 41.1942C22.897 39.6647 22.5316 37.8422 23.6823 36.3104C25.224 37.2979 26.3571 38.9827 27.2498 40.5193C28.0158 41.8378 28.8087 43.6576 28.4153 45.2279C29.3248 45.5365 30.2578 45.8075 31.2131 46.0387L31.1563 46.2732C30.1974 46.0411 29.2608 45.7692 28.3476 45.4597C27.7078 47.3504 25.6119 47.975 23.9169 48.2508C21.5018 48.6437 18.6261 47.8824 16.5643 46.3488C17.6525 44.8109 19.8728 44.6549 21.547 44.5372L21.5688 44.5357C23.4029 44.4068 25.3866 44.579 27.231 45.0582C25.1003 44.2471 23.1066 43.2273 21.2682 42.0284L21.2411 42.0712C20.2337 43.7047 18.2111 43.7684 16.6235 43.6651C14.4692 43.5249 11.982 42.215 10.5425 40.4043C11.8965 39.2163 13.8964 39.5488 15.446 39.8064L15.4535 39.8076C17.183 40.0951 19.0729 40.7223 20.6593 41.688C20.5082 41.569 20.3603 41.4431 20.2166 41.3111C18.6742 40.2114 17.2514 38.9813 15.9603 37.6401C15.9453 37.6551 15.9301 37.67 15.9148 37.6848C14.6594 38.9477 12.831 38.617 11.4041 38.206C9.49462 37.656 7.51432 35.9967 6.56532 34.0918C8.03592 33.2678 9.79412 33.9468 11.1617 34.4839C12.6627 35.0734 14.2508 36.0164 15.4719 37.2185C15.346 37.0597 15.2259 36.8938 15.1124 36.7221C13.9774 35.4411 12.9564 34.0694 12.0588 32.6223L12.0138 32.6505C10.5936 33.567 8.98452 32.9033 7.70922 32.2506C5.98012 31.3657 4.59062 29.4209 3.99022 27.5083C5.52412 27.017 7.03962 27.9813 8.21772 28.745C9.50622 29.5802 10.8114 30.7714 11.7073 32.1375C11.6415 32.0029 11.5802 31.8653 11.5237 31.7251C10.6629 30.2233 9.93162 28.6467 9.33962 27.0112L9.30912 27.0216L9.30662 27.0225C8.01532 27.5134 6.57732 26.7502 5.63982 25.9132C4.33682 24.75 3.41842 22.9617 3.20312 21.2146C4.54942 21.0402 5.81782 22.0818 6.68502 22.9702C7.68322 23.9927 8.57912 25.2012 9.12992 26.5435C9.08972 26.3977 9.05522 26.2496 9.02622 26.1C8.52502 24.5631 8.14532 22.9781 7.89502 21.3577L7.87552 21.3601L7.86892 21.3612C6.50372 21.5891 5.24152 20.5512 4.48742 19.5439C3.42942 18.1304 2.88402 16.1741 3.02072 14.401C4.38062 14.4961 5.41612 15.7898 6.08762 16.8363C6.86482 18.0478 7.50932 19.4189 7.79162 20.8533C7.78302 20.7392 7.77792 20.6244 7.77612 20.5093C7.56882 18.8601 7.49492 17.1771 7.56252 15.4733L7.55862 15.4731C6.17062 15.4231 5.14482 14.1344 4.61522 12.9913C3.85742 11.3555 3.73542 9.2878 4.24122 7.5452C5.56412 7.9165 6.30162 9.434 6.73692 10.6021C7.23882 11.9489 7.58912 13.4178 7.59192 14.8782C7.66412 13.653 7.80952 12.4181 8.03122 11.1781Z" fill="#343019"/>
<path d="M35.3685 8.1554V14.0052C35.3685 16.5781 33.0383 17.816 29.5066 17.816C26.2055 17.816 23.8389 16.5903 23.8389 13.7018V8.1554H27.1279V13.7018C27.1279 14.7334 28.0138 15.3766 29.6401 15.3766C31.1936 15.3766 32.116 14.7091 32.116 13.7139V8.1554H35.3685Z" fill="#343019"/>
<path d="M46.3221 15.146V17.6825H37.2319V8.1554H40.5209V15.146H46.3221Z" fill="#343019"/>
<path d="M56.097 10.5463V8.1554H44.7251V10.5463H48.7423V17.6825H52.0677V10.5463H56.097Z" fill="#343019"/>
<path fill-rule="evenodd" clip-rule="evenodd" d="M67.7629 9.1264C68.1999 9.5754 68.4069 10.1944 68.4069 11.056C68.4069 11.7964 68.2249 12.4275 67.9209 12.8522C67.5809 13.3134 67.0589 13.7018 66.4159 13.7989L69.2929 17.6825H65.6759L63.3089 14.3207H60.3601V17.6825H57.1196V8.1554H64.7049C66.2099 8.1554 67.1929 8.5195 67.7629 9.1264ZM65.1419 11.8571C65.2269 11.7114 65.2509 11.5172 65.2509 11.3595C65.2509 11.1774 65.2269 10.9832 65.1419 10.8619C64.9719 10.5463 64.6319 10.4614 64.1219 10.4614H60.3722V12.1969H64.1829C64.7049 12.1969 65.0209 12.0998 65.1419 11.8571Z" fill="#343019"/>
<path fill-rule="evenodd" clip-rule="evenodd" d="M73.6711 15.9228H78.8171L79.6541 17.6825H83.1621L78.3561 8.1554H74.4361L69.3511 17.6825H72.7851L73.6711 15.9228ZM77.7851 13.7867H74.7391L75.9411 11.493L76.3051 10.6191L76.6451 11.4808L77.7851 13.7867Z" fill="#343019"/>
<path fill-rule="evenodd" clip-rule="evenodd" d="M67.4161 19.4768C65.3801 19.4768 64.3091 20.4418 64.3091 21.8598C64.3091 23.4603 65.4331 24.2722 67.4161 24.2722C69.5991 24.2722 70.5171 23.3308 70.5171 21.8598C70.5171 20.3653 69.4811 19.4768 67.4161 19.4768ZM67.4161 23.0896C66.2571 23.0896 65.9211 22.613 65.9211 21.8775C65.9211 21.1538 66.2861 20.6772 67.4101 20.6772C68.6401 20.6772 68.9161 21.2126 68.9161 21.8775C68.9161 22.5836 68.5811 23.0896 67.4161 23.0896Z" fill="#343019"/>
<path d="M61.2914 24.2016V21.4656H58.22V22.46H59.8616C59.8499 22.5365 59.791 22.6836 59.7145 22.7718C59.5439 22.9719 59.0908 23.1484 58.5024 23.1484C57.8905 23.1484 57.4963 22.9895 57.2845 22.7424C57.1433 22.56 57.0609 22.3011 57.0609 21.9128C57.0609 21.5068 57.1433 21.2303 57.3021 21.0479C57.5316 20.789 57.9199 20.6772 58.4907 20.6772C59.0026 20.6772 59.3556 20.7948 59.5204 20.9419C59.6263 21.0302 59.7086 21.1538 59.7263 21.2361H61.2502C61.2444 21.089 61.1973 20.8537 61.1149 20.6831C60.7501 19.9417 59.9028 19.5004 58.4613 19.5004C57.208 19.5004 56.3666 19.8828 55.9018 20.4595C55.5958 20.8537 55.4546 21.3479 55.4546 21.901C55.4546 22.513 55.6193 23.0366 55.89 23.3838C56.3489 23.9781 57.1668 24.2722 58.1494 24.2722C59.0144 24.2722 59.6086 24.0663 59.9852 23.7545L60.0264 24.2016H61.2914Z" fill="#343019"/>
<path d="M45.263 21.4068C46.4574 21.5362 46.9693 21.9599 46.9693 22.766C46.9693 23.7427 46.0161 24.2722 44.1391 24.2722C42.3916 24.2722 41.6385 23.778 41.3501 23.1308C41.2854 22.9778 41.256 22.7895 41.2383 22.6718H42.9329C42.9447 22.7424 42.9859 22.8483 43.0447 22.9189C43.1859 23.0896 43.5801 23.1896 44.2509 23.1896C45.1159 23.1896 45.3218 23.066 45.3218 22.8366C45.3218 22.5894 45.11 22.5365 44.3274 22.4541C44.0156 22.4247 43.5213 22.3776 43.3154 22.36C41.8209 22.2246 41.2678 21.7598 41.2678 20.9655C41.2678 20.1417 42.2445 19.5122 44.0273 19.5122C45.6101 19.5122 46.3456 19.9829 46.6516 20.5713C46.7457 20.7478 46.8045 20.9478 46.8222 21.089H45.1276C45.1217 21.0243 45.0982 20.9596 45.0335 20.8772C44.904 20.7066 44.5745 20.5948 43.9861 20.5948C43.1565 20.5948 42.9388 20.6948 42.9388 20.9066C42.9388 21.142 43.2154 21.195 44.1391 21.295C44.498 21.3244 45.0688 21.3832 45.263 21.4068Z" fill="#343019"/>
<path fill-rule="evenodd" clip-rule="evenodd" d="M28.3705 19.977C28.6823 20.2241 28.8588 20.6419 28.8588 21.2479C28.8588 21.7422 28.7353 22.1128 28.4999 22.3717C28.1822 22.7365 27.6585 22.9013 26.976 22.9072C26.7641 22.9131 24.9519 22.9072 24.9519 22.9072V24.2016H23.3691V19.5828H26.9524C27.5879 19.5828 28.0704 19.7122 28.3705 19.977ZM27.1996 21.6068C27.2466 21.5245 27.2702 21.4185 27.2702 21.2714C27.2702 21.1185 27.2407 20.989 27.1878 20.9184C27.0878 20.7713 26.8995 20.7007 26.5935 20.7007H24.9401V21.8304H26.5817C26.9112 21.8304 27.1054 21.7539 27.1996 21.6068Z" fill="#343019"/>
<path fill-rule="evenodd" clip-rule="evenodd" d="M34.649 20.0535C34.8609 20.2712 34.9609 20.5713 34.9609 20.989C34.9609 21.3479 34.8726 21.6539 34.7255 21.8598C34.5608 22.0834 34.3078 22.2717 33.9959 22.3188L35.3904 24.2016H33.637L32.4896 22.5718H31.0598V24.2016H29.4888V19.5828H33.1663C33.8959 19.5828 34.3725 19.7593 34.649 20.0535ZM33.3781 21.3774C33.4193 21.3068 33.431 21.2126 33.431 21.1361C33.431 21.0479 33.4193 20.9537 33.3781 20.8949C33.2957 20.7419 33.131 20.7007 32.8839 20.7007H31.0657V21.5421H32.9133C33.1663 21.5421 33.3193 21.495 33.3781 21.3774Z" fill="#343019"/>
<path d="M40.7615 24.2016V23.0543H37.4489V22.4541H40.6262V21.3303H37.4489V20.736H40.7203V19.5828H35.8955V24.2016H40.7615Z" fill="#343019"/>
<path d="M52.6953 20.7419V19.5828H47.1821V20.7419H49.1296V24.2016H50.7418V20.7419H52.6953Z" fill="#343019"/>
<path d="M54.8149 19.5828V24.2016H53.1968V19.5828H54.8149Z" fill="#343019"/>
<path d="M63.6702 19.5828V24.2016H62.0518V19.5828H63.6702Z" fill="#343019"/>
<path d="M76.7599 19.5828V22.4188C76.7599 23.6662 75.6299 24.2664 73.9179 24.2664C72.3179 24.2664 71.1699 23.6721 71.1699 22.2717V19.5828H72.7649V22.2717C72.7649 22.7718 73.1939 23.0837 73.9829 23.0837C74.7359 23.0837 75.1829 22.7601 75.1829 22.2776V19.5828H76.7599Z" fill="#343019"/>
<path d="M83.1119 22.766C83.1119 21.9599 82.5999 21.5362 81.4059 21.4068C81.2109 21.3832 80.6409 21.3244 80.2819 21.295C79.3579 21.195 79.0809 21.142 79.0809 20.9066C79.0809 20.6948 79.2989 20.5948 80.1289 20.5948C80.7169 20.5948 81.0469 20.7066 81.1759 20.8772C81.2409 20.9596 81.2639 21.0243 81.2699 21.089H82.9649C82.9469 20.9478 82.8879 20.7478 82.7939 20.5713C82.4879 19.9829 81.7529 19.5122 80.1699 19.5122C78.3869 19.5122 77.4099 20.1417 77.4099 20.9655C77.4099 21.7598 77.9639 22.2246 79.4579 22.36L79.5539 22.3685L79.7139 22.3831L80.4699 22.4541C81.2529 22.5365 81.4639 22.5894 81.4639 22.8366C81.4639 23.066 81.2589 23.1896 80.3939 23.1896C79.7229 23.1896 79.3289 23.0896 79.1869 22.9189C79.1289 22.8483 79.0869 22.7424 79.0759 22.6718H77.3809C77.3989 22.7895 77.4279 22.9778 77.4929 23.1308C77.7809 23.778 78.5339 24.2722 80.2819 24.2722C82.1589 24.2722 83.1119 23.7427 83.1119 22.766Z" fill="#343019"/>
<path fill-rule="evenodd" clip-rule="evenodd" d="M41.9664 25.9701C40.6433 25.9701 39.9473 26.5973 39.9473 27.5189C39.9473 28.559 40.6777 29.0867 41.9664 29.0867C43.3852 29.0867 43.9817 28.4749 43.9817 27.5189C43.9817 26.5476 43.3087 25.9701 41.9664 25.9701ZM41.9664 28.3181C41.2131 28.3181 40.9951 28.0083 40.9951 27.5303C40.9951 27.06 41.2322 26.7502 41.9626 26.7502C42.7618 26.7502 42.9416 27.0982 42.9416 27.5303C42.9416 27.9892 42.7236 28.3181 41.9664 28.3181Z" fill="#343019"/>
<path d="M34.6085 28.1078C34.6085 27.5839 34.2758 27.3085 33.4995 27.2244C33.3733 27.2091 33.0024 27.1709 32.7691 27.1518C32.1687 27.0867 31.989 27.0523 31.989 26.8994C31.989 26.7617 32.1305 26.6967 32.6697 26.6967C33.0521 26.6967 33.2662 26.7693 33.3504 26.8802C33.3924 26.9338 33.4077 26.9758 33.4116 27.0179H34.5129C34.5014 26.9261 34.4632 26.7961 34.402 26.6814C34.2031 26.299 33.7251 25.9931 32.6964 25.9931C31.5378 25.9931 30.903 26.4022 30.903 26.9376C30.903 27.4539 31.2624 27.756 32.2337 27.8439C32.3676 27.8554 32.6888 27.886 32.8915 27.9051C33.4001 27.9586 33.5377 27.9931 33.5377 28.1537C33.5377 28.3028 33.4039 28.3831 32.8418 28.3831C32.4058 28.3831 32.1496 28.3181 32.0578 28.2072C32.0196 28.1613 31.9928 28.0925 31.9852 28.0466H30.8838C30.8953 28.1231 30.9144 28.2454 30.9565 28.3449C31.1439 28.7655 31.6334 29.0867 32.7691 29.0867C33.989 29.0867 34.6085 28.7426 34.6085 28.1078Z" fill="#343019"/>
<path fill-rule="evenodd" clip-rule="evenodd" d="M26.9732 28.1919C26.9732 28.3984 26.9158 28.6011 26.8011 28.7349C26.6252 28.9491 26.2963 29.0408 25.8719 29.0408H23.2065V26.0389H25.7992C26.2122 26.0389 26.4761 26.1384 26.6214 26.2875C26.7514 26.4175 26.8088 26.5896 26.8088 26.7846C26.8088 26.9797 26.7629 27.1403 26.6635 27.2588C26.5831 27.3583 26.4455 27.4347 26.3002 27.4539C26.5143 27.4806 26.717 27.5877 26.8317 27.7368C26.9273 27.8477 26.9732 28.016 26.9732 28.1919ZM25.6845 27.1403C25.7227 27.0982 25.7457 27.037 25.7457 26.9644C25.7457 26.8917 25.7227 26.8305 25.673 26.7885C25.6195 26.7387 25.52 26.7196 25.3747 26.7196H24.2084V27.2091H25.4015C25.5315 27.2091 25.631 27.19 25.6845 27.1403ZM25.5124 28.3602C25.6921 28.3602 25.7992 28.3372 25.8604 28.2799C25.8986 28.2416 25.9139 28.1843 25.9139 28.1116C25.9139 28.0351 25.8948 27.9778 25.8489 27.9319C25.7916 27.8822 25.6921 27.8592 25.5239 27.8592H24.2084V28.3602H25.5124Z" fill="#343019"/>
<path d="M30.5741 28.2952V29.0408H27.4116V26.0389H30.5473V26.7885H28.4211V27.1747H30.4861V27.9051H28.4211V28.2952H30.5741Z" fill="#343019"/>
<path d="M38.3297 26.0389V26.7923H37.0601V29.0408H36.0124V26.7923H34.7466V26.0389H38.3297Z" fill="#343019"/>
<path d="M47.481 26.0389V26.7999H45.4428V27.2244H47.3854V27.9778H45.4428V29.0408H44.4141V26.0389H47.481Z" fill="#343019"/>
<path d="M52.6627 26.7923V26.0389H49.0796V26.7923H50.3454V29.0408H51.3932V26.7923H52.6627Z" fill="#343019"/>
<path d="M56.5719 26.0389V29.0408H55.547V27.951H54.0097V29.0408H52.9849V26.0389H54.0097V27.1326H55.547V26.0389H56.5719Z" fill="#343019"/>
<path d="M60.3412 29.0408V28.2952H58.1882V27.9051H60.2532V27.1747H58.1882V26.7885H60.3144V26.0389H57.1787V29.0408H60.3412Z" fill="#343019"/>
<path d="M66.681 26.0389H67.671L66.574 29.0408H65.45C65.45 29.0408 64.849 27.2474 64.845 27.1976C64.842 27.2474 64.237 29.0408 64.237 29.0408H63.117L61.9927 26.0389H63.105C63.105 26.0389 63.756 27.928 63.756 27.9739C63.756 27.928 64.356 26.0389 64.356 26.0389H65.431C65.431 26.0389 66.035 27.928 66.035 27.9739C66.035 27.928 66.681 26.0389 66.681 26.0389Z" fill="#343019"/>
<path fill-rule="evenodd" clip-rule="evenodd" d="M69.6352 25.9701C68.3122 25.9701 67.6162 26.5973 67.6162 27.5189C67.6162 28.559 68.3462 29.0867 69.6352 29.0867C71.0542 29.0867 71.6502 28.4749 71.6502 27.5189C71.6502 26.5476 70.9772 25.9701 69.6352 25.9701ZM69.6352 28.3181C68.8822 28.3181 68.6642 28.0083 68.6642 27.5303C68.6642 27.06 68.9012 26.7502 69.6312 26.7502C70.4312 26.7502 70.6102 27.0982 70.6102 27.5303C70.6102 27.9892 70.3922 28.3181 69.6352 28.3181Z" fill="#343019"/>
<path fill-rule="evenodd" clip-rule="evenodd" d="M75.437 26.3449C75.574 26.4864 75.639 26.6814 75.639 26.9529C75.639 27.1862 75.582 27.385 75.486 27.5189C75.379 27.6642 75.215 27.7866 75.012 27.8171L75.918 29.0408H74.779L74.033 27.9816H73.104V29.0408H72.083V26.0389H74.473C74.947 26.0389 75.257 26.1537 75.437 26.3449ZM74.611 27.2053C74.637 27.1594 74.645 27.0982 74.645 27.0485C74.645 26.9911 74.637 26.93 74.611 26.8917C74.557 26.7923 74.45 26.7655 74.289 26.7655H73.108V27.3124H74.308C74.473 27.3124 74.572 27.2818 74.611 27.2053Z" fill="#343019"/>
<path d="M79.1111 29.0408V28.2416H77.2831V26.0389H76.2471V29.0408H79.1111Z" fill="#343019"/>
<path fill-rule="evenodd" clip-rule="evenodd" d="M83.1661 27.4844C83.1661 27.951 83.1201 28.2034 82.9831 28.4405C82.7761 28.819 82.3671 29.0408 81.6441 29.0408H79.5181V26.0389H81.6211C82.3401 26.0389 82.7651 26.2416 82.9751 26.5896C83.1241 26.8229 83.1661 27.0714 83.1661 27.4844ZM81.4491 28.3028C81.7741 28.3028 81.9581 28.2263 82.0691 28.0581C82.1381 27.9548 82.1571 27.7139 82.1571 27.5036C82.1531 27.3124 82.1301 27.1097 82.0691 27.0179C81.9501 26.8382 81.7711 26.7732 81.4571 26.7732H80.5431V28.3028H81.4491Z" fill="#343019"/>
<path d="M42.1449 43.6405H40.5603C40.5603 43.6405 39.5263 46.663 39.5263 46.7364C39.5263 46.663 38.5596 43.6405 38.5596 43.6405H36.8403C36.8403 43.6405 35.8797 46.663 35.8797 46.7364C35.8797 46.663 34.8396 43.6405 34.8396 43.6405H33.0591L34.8579 48.4434H36.6506C36.6506 48.4434 37.6173 45.5739 37.6234 45.4944C37.6296 45.5739 38.5901 48.4434 38.5901 48.4434H40.3889L42.1449 43.6405Z" fill="#343019"/>
<path d="M44.3135 48.4434V43.6405H42.6309V48.4434H44.3135Z" fill="#343019"/>
<path d="M50.8581 43.6405V48.4434H49.2183L46.8383 45.7697V48.4434H45.2598V43.6405H46.9851L49.2917 46.2531V43.6405H50.8581Z" fill="#343019"/>
<path d="M57.4123 48.4434V43.6405H55.846V46.2531L53.5394 43.6405H51.814V48.4434H53.3925V45.7697L55.7726 48.4434H57.4123Z" fill="#343019"/>
<path d="M63.4291 47.2503V48.4434H58.3687V43.6405H63.3861V44.8397H59.984V45.4577H63.2881V46.6263H59.984V47.2503H63.4291Z" fill="#343019"/>
<path fill-rule="evenodd" clip-rule="evenodd" d="M69.8961 45.1028C69.8961 44.6684 69.7921 44.3564 69.5721 44.13C69.2841 43.8241 68.7891 43.6405 68.0301 43.6405H64.2061V48.4434H65.84V46.7486H67.3271L68.5201 48.4434H70.3431L68.8931 46.4856C69.2171 46.4366 69.4801 46.2408 69.6521 46.0083C69.8041 45.7942 69.8961 45.476 69.8961 45.1028ZM68.3051 45.2558C68.3051 45.3353 68.2931 45.4332 68.2501 45.5066C68.1891 45.629 68.0301 45.6779 67.7671 45.6779H65.8461V44.803H67.7361C67.9931 44.803 68.1651 44.8458 68.2501 45.0049C68.2931 45.0661 68.3051 45.164 68.3051 45.2558Z" fill="#343019"/>
<path d="M37.2596 35.1669L36.5961 33.1247L35.9325 35.1669H33.7852L35.5224 36.429L34.8589 38.4712L36.5961 37.2091L38.3332 38.4712L37.6697 36.429L39.4069 35.1669H37.2596Z" fill="#343019"/>
<path d="M44.2564 33.1234L44.9335 35.1656H47.1246L45.352 36.4278L46.0291 38.4699L44.2564 37.2078L42.4838 38.4699L43.1609 36.4278L41.3882 35.1656H43.5793L44.2564 33.1234Z" fill="#343019"/>
<path d="M52.5331 35.1656L51.8561 33.1234L51.179 35.1656H48.9878L50.7605 36.4278L50.0834 38.4699L51.8561 37.2078L53.6287 38.4699L52.9516 36.4278L54.7243 35.1656H52.5331Z" fill="#343019"/>
<path d="M59.4556 33.1234L60.1327 35.1656H62.3238L60.5512 36.4278L61.2283 38.4699L59.4556 37.2078L57.683 38.4699L58.3601 36.4278L56.5874 35.1656H58.7786L59.4556 33.1234Z" fill="#343019"/>
<path d="M67.7802 35.1656L67.1162 33.1234L66.4522 35.1656H64.3052L66.0422 36.4278L65.3792 38.4699L67.1162 37.2078L68.8532 38.4699L68.1902 36.4278L69.9272 35.1656H67.7802Z" fill="#343019"/>
<path d="M95.6381 11.2224C96.2731 9.60793 95.9971 7.75123 95.4121 6.18983C94.7961 4.54693 93.7241 2.90823 92.1221 2.04413C92.0421 3.77563 92.5711 5.48613 93.1491 7.02863C93.6691 8.41593 94.3061 9.89393 95.3591 11.0412C95.5211 11.9104 95.6451 12.7772 95.7321 13.64C95.3831 12.7287 94.8181 11.8981 94.1121 11.2301C93.2031 10.3696 91.8501 9.70583 90.5811 10.0984C90.9531 11.5015 91.8001 12.8467 92.8041 13.7903C93.5941 14.533 94.6371 15.4846 95.8651 15.5221C95.9161 16.7922 95.8871 18.0507 95.7821 19.2921C95.6091 18.3837 95.2381 17.5283 94.701 16.8913C93.9641 16.0159 92.8711 14.9466 91.4761 15.1255C91.5521 16.5457 92.1191 18.0008 92.9081 19.0942C93.534 19.9631 94.3621 21.0706 95.5371 21.3567C95.3491 22.5762 95.0871 23.7755 94.7541 24.9491C94.7511 24.0505 94.553 23.1684 94.159 22.4609C93.604 21.4633 92.7391 20.219 91.3421 20.1217C91.1371 21.515 91.4151 23.0381 91.9751 24.2495C92.4221 25.2178 93.0191 26.4526 94.1061 26.9635C93.6491 28.2265 93.1091 29.4543 92.4891 30.6392C92.7071 29.6178 92.6981 28.5415 92.4411 27.573C92.0861 26.2382 91.2061 24.836 89.7921 24.4292C89.2921 25.903 89.3611 27.5474 89.6521 29.0452C89.8911 30.2785 90.3601 31.7269 91.4121 32.528C90.7241 33.6387 89.9631 34.7046 89.1321 35.7188C89.5791 34.7242 89.8001 33.6363 89.6811 32.6404C89.5081 31.19 89.1011 29.6387 87.6201 28.8657C86.7791 30.3157 86.5841 31.9424 86.5131 33.5491C86.4551 34.8481 86.6421 36.4503 87.5451 37.5071C86.5521 38.5385 85.482 39.5038 84.3391 40.394C85.0771 39.4469 85.5941 38.3356 85.7031 37.2366C85.8581 35.6837 85.7831 33.9743 84.4041 32.8346C83.2261 34.0656 82.5221 35.8785 82.1781 37.4531C81.8731 38.8452 81.5551 40.4931 82.2801 41.8632C80.8251 42.8134 79.2711 43.6505 77.6281 44.3595C78.7841 43.5357 79.7301 42.4054 80.1811 41.2384C80.7721 39.709 81.1371 37.8864 79.9871 36.3546C78.4451 37.3421 77.3121 39.0268 76.4191 40.5635C75.6531 41.8821 74.8601 43.702 75.2541 45.2723C74.3441 45.5809 73.4111 45.8519 72.4561 46.0831L72.5131 46.3176C73.4711 46.0855 74.4081 45.8136 75.3211 45.5041C75.9611 47.3947 78.0571 48.0195 79.7521 48.2952C82.1671 48.6881 85.0431 47.9269 87.1051 46.3932C86.0161 44.8553 83.7961 44.6993 82.1221 44.5816L82.1001 44.5801C80.2661 44.4512 78.2821 44.6234 76.4381 45.1027C78.5681 44.2916 80.5621 43.2716 82.4011 42.0726L82.4261 42.1126C83.4331 43.7488 85.4571 43.8128 87.0451 43.7094C89.2001 43.5692 91.6871 42.2593 93.1261 40.4486C91.7721 39.2608 89.7731 39.5931 88.2231 39.8506L88.215 39.852C86.486 40.1394 84.5971 40.7663 83.0111 41.7317C83.1621 41.6128 83.3091 41.4871 83.4531 41.3552C84.9951 40.2557 86.4171 39.0258 87.7081 37.6848C87.7261 37.7027 87.7441 37.7203 87.7621 37.7378C89.0181 38.9909 90.8411 38.6603 92.2651 38.2502C94.1751 37.7002 96.1551 36.0409 97.104 34.136C95.633 33.312 93.8751 33.9909 92.5081 34.5281C91.0051 35.1181 89.4161 36.0622 88.1941 37.2659C88.3201 37.1069 88.4411 36.9407 88.5551 36.7687C89.6901 35.487 90.7121 34.1145 91.6101 32.6665L91.6491 32.6906L91.659 32.6969C93.0781 33.6101 94.6861 32.947 95.9601 32.2948C97.6891 31.4099 99.0791 29.4651 99.6791 27.5525C98.1451 27.0612 96.6301 28.0255 95.4521 28.7892C94.1621 29.6249 92.8561 30.8169 91.9601 32.184C92.0261 32.0491 92.0881 31.9111 92.1451 31.7706C93.0061 30.2683 93.7371 28.6913 94.3291 27.0554L94.3601 27.0658L94.3651 27.0678C95.6561 27.5565 97.0931 26.7938 98.0301 25.9574C99.3321 24.7942 100.251 23.0059 100.466 21.2588C99.1201 21.0844 97.8511 22.126 96.9841 23.0143C95.9861 24.0375 95.0891 25.2468 94.5381 26.5902C94.5791 26.4436 94.6141 26.2947 94.6431 26.1442C95.1441 24.6074 95.5241 23.0225 95.7741 21.4023L95.812 21.4073C97.1721 21.6275 98.4301 20.5926 99.1821 19.5881C100.24 18.1746 100.785 16.2183 100.648 14.4451C99.2891 14.5403 98.2531 15.8339 97.5821 16.8805C96.8041 18.0926 96.1591 19.4645 95.8771 20.8998C95.8861 20.785 95.8911 20.6696 95.8931 20.5538C96.1001 18.9045 96.1741 17.2214 96.1061 15.5176C97.4951 15.4689 98.5241 14.1793 99.0541 13.0357C99.8111 11.4 99.9331 9.33223 99.4281 7.58973C98.1051 7.96103 97.3671 9.47833 96.9321 10.6464C96.4301 11.9932 96.0801 13.4623 96.0771 14.9227C96.0051 13.6975 95.8591 12.4625 95.6381 11.2224Z" fill="#343019"/>
</svg>
