<svg width="174" height="32" viewBox="0 0 174 32" fill="none" xmlns="http://www.w3.org/2000/svg">
<g clip-path="url(#clip0_291_5167)">
<path d="M97.6594 23.5649H101.381V9.52625H97.6594V23.5649ZM97.6594 7.33703H101.381V3.99841H97.6594V7.33703Z" fill="#343019"/>
<path d="M103.78 28.1623H107.502V21.9776H107.556C108.349 23.1817 109.636 23.9753 111.606 23.9753C115.218 23.9753 117.681 21.102 117.681 16.5593C117.681 12.1807 115.301 9.14313 111.579 9.14313C109.663 9.14313 108.349 10.0463 107.447 11.2777H107.364V9.52625H103.78V28.1623ZM110.812 20.883C108.596 20.883 107.419 19.2137 107.419 16.6687C107.419 14.1511 108.349 12.1534 110.676 12.1534C112.975 12.1534 113.905 14.0142 113.905 16.6687C113.905 19.3232 112.701 20.883 110.812 20.883Z" fill="#343019"/>
<path d="M125.105 23.9753C128.608 23.9753 131.016 22.2787 131.016 19.46C131.016 16.1762 128.417 15.5193 126.063 15.0268C124.065 14.6163 122.205 14.5068 122.205 13.3028C122.205 12.2902 123.162 11.7429 124.613 11.7429C126.2 11.7429 127.158 12.2902 127.322 13.7953H130.688C130.415 10.9767 128.362 9.14313 124.668 9.14313C121.466 9.14313 118.948 10.5936 118.948 13.6311C118.948 16.6961 121.411 17.3802 123.929 17.8728C125.844 18.2559 127.623 18.3927 127.623 19.7337C127.623 20.7188 126.693 21.3483 125.051 21.3483C123.381 21.3483 122.232 20.6367 121.986 19.0222H118.538C118.757 22.005 121.028 23.9753 125.105 23.9753Z" fill="#343019"/>
<path d="M145.146 23.5649V9.52625H141.425V17.6265C141.425 19.4873 140.357 20.8009 138.606 20.8009C137.019 20.8009 136.28 19.8978 136.28 18.2559V9.52625H132.586V18.8853C132.586 21.9502 134.337 23.948 137.457 23.948C139.428 23.948 140.522 23.2091 141.48 21.9229H141.562V23.5649H145.146Z" fill="#343019"/>
<path d="M147.553 23.5649H151.275V15.4099C151.275 13.549 152.288 12.345 153.794 12.345C155.162 12.345 155.955 13.1659 155.955 14.7531V23.5649H159.677V15.4099C159.677 13.549 160.635 12.345 162.194 12.345C163.563 12.345 164.356 13.1659 164.356 14.7531V23.5649H168.078V14.1237C168.078 11.0587 166.409 9.14313 163.453 9.14313C161.675 9.14313 160.196 10.0735 159.239 11.606H159.184C158.5 10.1283 157.077 9.14313 155.298 9.14313C153.355 9.14313 151.987 10.1283 151.221 11.4145H151.139V9.52625H147.553V23.5649Z" fill="#343019"/>
<path d="M0.657959 23.5649H4.37968V3.99841H0.657959V23.5649Z" fill="#343019"/>
<path d="M13.4798 23.9753C17.8309 23.9753 20.8137 20.7462 20.8137 16.5593C20.8137 12.3723 17.8309 9.14313 13.4798 9.14313C9.12859 9.14313 6.14575 12.3723 6.14575 16.5593C6.14575 20.7462 9.12859 23.9753 13.4798 23.9753ZM13.4798 21.1293C11.1811 21.1293 9.92221 19.2958 9.92221 16.5593C9.92221 13.8227 11.1811 11.9618 13.4798 11.9618C15.7511 11.9618 17.0373 13.8227 17.0373 16.5593C17.0373 19.2958 15.7511 21.1293 13.4798 21.1293Z" fill="#343019"/>
<path d="M28.7284 28.3538C30.8082 28.3538 32.6143 27.8613 33.791 26.7666C34.8309 25.8088 35.4604 24.4679 35.4604 22.4976V9.52625H31.8755V11.004H31.8207C30.9723 9.82731 29.6862 9.14313 27.9348 9.14313C24.3773 9.14313 21.8596 11.825 21.8596 16.0119C21.8596 20.2536 24.9246 22.7165 28.0443 22.7165C29.823 22.7165 30.8903 22.005 31.7112 21.0746H31.7933V22.6071C31.7933 24.5227 30.7808 25.5352 28.6736 25.5352C26.9496 25.5352 26.156 24.851 25.855 23.9753H22.1606C22.5437 26.7119 24.8972 28.3538 28.7284 28.3538ZM28.6736 19.7337C26.758 19.7337 25.4993 18.338 25.4993 15.9572C25.4993 13.6038 26.758 12.126 28.6463 12.126C30.8903 12.126 31.9849 13.8774 31.9849 15.9298C31.9849 18.0096 31.0271 19.7337 28.6736 19.7337Z" fill="#343019"/>
<path d="M44.5066 23.9753C48.8577 23.9753 51.8406 20.7462 51.8406 16.5593C51.8406 12.3723 48.8577 9.14313 44.5066 9.14313C40.1555 9.14313 37.1726 12.3723 37.1726 16.5593C37.1726 20.7462 40.1555 23.9753 44.5066 23.9753ZM44.5066 21.1293C42.2079 21.1293 40.9491 19.2958 40.9491 16.5593C40.9491 13.8227 42.2079 11.9618 44.5066 11.9618C46.778 11.9618 48.0642 13.8227 48.0642 16.5593C48.0642 19.2958 46.778 21.1293 44.5066 21.1293Z" fill="#343019"/>
<path d="M169.43 7.22147C169.43 6.59174 169.941 6.08124 170.571 6.08124H172.851C173.481 6.08124 173.992 6.59174 173.992 7.22147C173.992 7.85121 173.481 8.36172 172.851 8.36172H170.571C169.941 8.36172 169.43 7.85121 169.43 7.22147Z" fill="#343019"/>
<path fill-rule="evenodd" clip-rule="evenodd" d="M74.4111 0C83.227 0 90.3746 7.14702 90.3746 15.9633C90.3746 24.7796 83.227 31.9266 74.4111 31.9266C65.5948 31.9266 58.4478 24.7796 58.4478 15.9633C58.4478 7.14702 65.5948 0 74.4111 0ZM73.8341 1.19453C72.0129 1.45082 70.2788 2.91416 68.9327 5.36159C68.5422 6.07151 68.1899 6.85581 67.8829 7.70264C69.7133 7.24269 71.724 6.97151 73.8341 6.92957V1.19453ZM66.5337 8.08605C66.9156 6.88783 67.3826 5.78542 67.9216 4.80547C68.5888 3.59221 69.3808 2.54451 70.273 1.73982C65.4211 3.14895 61.5967 6.9734 60.1875 11.8254C60.9922 10.9331 62.0399 10.1412 63.2532 9.4739C64.2332 8.9349 65.3355 8.46781 66.5337 8.08605ZM66.1504 9.43519C65.6904 11.2655 65.4192 13.2762 65.3773 15.3863H59.6422C59.8985 13.5651 61.3619 11.831 63.8093 10.485C64.5192 10.0946 65.3035 9.74224 66.1504 9.43519ZM66.5315 15.3863C66.5791 13.0835 66.9107 10.9216 67.4592 9.01144C69.3694 8.46294 71.5313 8.13139 73.8341 8.08374V10.5763C72.975 12.7756 71.2229 14.5276 69.0235 15.3863H66.5315ZM65.3773 16.5403H59.6422C59.8985 18.3615 61.3619 20.0955 63.8093 21.4416C64.5192 21.8321 65.3035 22.1844 66.1504 22.4914C65.6904 20.6611 65.4192 18.6504 65.3773 16.5403ZM67.4592 22.9152C66.9107 21.005 66.5791 18.8431 66.5315 16.5403H69.0235C71.2229 17.399 72.975 19.151 73.8341 21.3503V23.8429C71.5313 23.7952 69.3694 23.4637 67.4592 22.9152ZM66.5337 23.8406C65.3355 23.4588 64.2332 22.9917 63.2532 22.4527C62.0399 21.7854 60.9922 20.9935 60.1875 20.1012C61.5967 24.9532 65.4211 28.7777 70.273 30.1868C69.3808 29.3821 68.5888 28.3344 67.9216 27.1211C67.3826 26.1412 66.9156 25.0388 66.5337 23.8406ZM73.8341 30.7321C72.0129 30.4758 70.2788 29.0124 68.9327 26.565C68.5422 25.8551 68.1899 25.0708 67.8829 24.224C69.7133 24.6839 71.724 24.9551 73.8341 24.997V30.7321ZM78.549 30.1868C79.4413 29.3821 80.2331 28.3344 80.9004 27.1211C81.4391 26.1412 81.9069 25.0388 82.2884 23.8406C83.4864 23.4588 84.5887 22.9917 85.5688 22.4527C86.7821 21.7854 87.83 20.9935 88.6346 20.1012C87.225 24.9532 83.401 28.7777 78.549 30.1868ZM80.9395 24.224C80.6322 25.0708 80.2794 25.8551 79.8891 26.565C78.5432 29.0124 76.8091 30.4758 74.988 30.7321V24.997C77.0981 24.9551 79.1087 24.6839 80.9395 24.224ZM82.6715 22.4914C83.5184 22.1844 84.303 21.8321 85.0125 21.4416C87.4605 20.0956 88.9235 18.3615 89.1797 16.5403H83.4449C83.4026 18.6504 83.1313 20.6611 82.6715 22.4914ZM82.2908 16.5403C82.2429 18.8431 81.9117 21.005 81.3625 22.9152C79.4527 23.4637 77.2908 23.7952 74.988 23.8429V21.3521C75.8468 19.1521 77.5993 17.3993 79.7992 16.5403H82.2908ZM83.4449 15.3863H89.1797C88.9235 13.5651 87.4605 11.831 85.0125 10.485C84.303 10.0946 83.5184 9.74224 82.6715 9.43519C83.1313 11.2655 83.4026 13.2762 83.4449 15.3863ZM81.3625 9.01144C81.9117 10.9216 82.2429 13.0835 82.2908 15.3863H79.7993C77.5993 14.5273 75.8468 12.7746 74.988 10.5745V8.08374C77.2908 8.13139 79.4527 8.46294 81.3625 9.01144ZM82.2884 8.08605C83.4864 8.46781 84.5887 8.9349 85.5688 9.4739C86.7821 10.1412 87.83 10.9331 88.6346 11.8254C87.225 6.9734 83.401 3.14895 78.549 1.73982C79.4413 2.54451 80.2331 3.59221 80.9004 4.80547C81.4391 5.78542 81.9069 6.88783 82.2884 8.08605ZM74.988 1.19453C76.8091 1.45082 78.5432 2.91416 79.8891 5.36159C80.2794 6.07151 80.6322 6.85581 80.9395 7.70264C79.1087 7.24269 77.0981 6.97151 74.988 6.92957V1.19453Z" fill="#343019"/>
</g>
<defs>
<clipPath id="clip0_291_5167">
<rect width="174" height="31.9266" fill="white"/>
</clipPath>
</defs>
</svg>
