<svg width="174" height="39" viewBox="0 0 174 39" fill="none" xmlns="http://www.w3.org/2000/svg">
<g clip-path="url(#clip0_290_5203)">
<path d="M50.203 20.282C50.2376 19.6158 50.2376 18.9482 50.203 18.282H12.254C12.246 18.448 12.239 18.615 12.235 18.782H4.285L4.281 19.032H0V19.532H4.28L4.286 19.782H12.235C12.239 19.95 12.245 20.116 12.255 20.282H23.15C23.1086 19.9503 23.0879 19.6163 23.088 19.282H39.088C39.088 19.621 39.068 19.955 39.026 20.282H50.203ZM50.124 17.282H38.837C38.7492 16.9417 38.639 16.6077 38.507 16.282H23.672C23.541 16.606 23.43 16.939 23.342 17.282H12.332C12.35 17.115 12.37 16.948 12.392 16.782H4.442L4.476 16.538H0V16.038H4.555L4.601 15.782H12.551C12.581 15.615 12.615 15.448 12.651 15.282H49.807C49.947 15.937 50.054 16.604 50.124 17.282ZM49.564 14.282H37.334C37.0456 13.922 36.7267 13.5874 36.381 13.282H25.797C25.452 13.588 25.132 13.922 24.844 14.282H12.894C12.939 14.115 12.987 13.948 13.037 13.782H5.087L5.175 13.501H0V13H5.342L5.42 12.781H13.37C13.43 12.613 13.494 12.447 13.56 12.281H48.897C49.155 12.931 49.378 13.6 49.564 14.282ZM48.467 11.282H13.99C14.068 11.114 14.148 10.948 14.231 10.782H6.282L6.423 10.506H0V10.006H6.694L6.821 9.782H14.771C14.868 9.614 14.968 9.447 15.07 9.282H47.387C47.785 9.924 48.147 10.592 48.467 11.282ZM12.332 21.282H50.125C50.054 21.96 49.947 22.628 49.807 23.282H38.019C38.204 22.962 38.368 22.628 38.508 22.282H23.67C23.81 22.628 23.973 22.962 24.158 23.282H12.65C12.6144 23.1158 12.5811 22.9491 12.55 22.782H4.601C4.58471 22.6941 4.56905 22.6061 4.554 22.518H0V22.018H4.475C4.46352 21.9394 4.45252 21.8607 4.442 21.782H12.392C12.3698 21.6156 12.3498 21.4489 12.332 21.282ZM12.893 24.282H49.563C49.378 24.965 49.155 25.632 48.897 26.282H34.965C35.4717 26.0007 35.9465 25.6655 36.381 25.282H25.797C26.2315 25.6655 26.7063 26.0007 27.213 26.282H13.56C13.4944 26.1162 13.431 25.9495 13.37 25.782H5.42L5.334 25.541H0V25.041H5.168C5.14072 24.9549 5.11406 24.8685 5.088 24.782H13.037C12.987 24.616 12.939 24.45 12.893 24.282ZM13.99 27.282H48.467C48.1473 27.9697 47.7867 28.6375 47.387 29.282H15.07C14.9674 29.1169 14.8674 28.9502 14.77 28.782H6.821C6.771 28.696 6.722 28.61 6.674 28.523H0V28.023H6.405L6.282 27.783H14.232C14.1489 27.6175 14.0682 27.4508 13.99 27.283V27.282ZM16.92 31.782C17.067 31.952 17.218 32.118 17.372 32.282H45.085C45.6752 31.6531 46.2221 30.9849 46.722 30.282H15.735C15.855 30.451 15.977 30.618 16.103 30.782H8.153L8.351 31.037H0V31.537H8.76C8.829 31.62 8.899 31.701 8.97 31.782H16.92ZM20.237 34.782C20.48 34.955 20.727 35.122 20.977 35.282H41.48C42.4004 34.6909 43.2683 34.0218 44.074 33.282H18.384C18.569 33.452 18.758 33.619 18.95 33.782H11C11.108 33.874 11.217 33.964 11.327 34.052H0V34.552H11.972C12.076 34.63 12.182 34.707 12.288 34.782H20.238H20.237ZM27.254 37.866C28.536 38.139 29.865 38.282 31.228 38.282C34.282 38.282 37.167 37.562 39.723 36.282H22.733C23.089 36.46 23.45 36.627 23.817 36.782H15.867C16.009 36.842 16.152 36.901 16.295 36.958H0V37.458H17.725C19.482 37.994 21.347 38.282 23.279 38.282C24.642 38.282 25.972 38.139 27.254 37.866ZM15.735 8.282H46.722C46.2221 7.57912 45.6752 6.91092 45.085 6.282H17.372C17.218 6.446 17.067 6.612 16.919 6.782H8.97L8.794 6.988H0V7.488H8.382C8.305 7.585 8.229 7.683 8.154 7.782H16.103C15.977 7.947 15.855 8.114 15.735 8.282ZM18.383 5.282H44.073C43.2676 4.54225 42.4001 3.87312 41.48 3.282H20.977C20.727 3.443 20.48 3.61 20.237 3.782H12.288C12.178 3.861 12.068 3.94 11.96 4.021H0V4.521H11.316C11.21 4.607 11.105 4.694 11.001 4.782H18.95C18.758 4.945 18.569 5.112 18.383 5.282ZM22.734 2.282H39.724C37.0869 0.962435 34.1778 0.27755 31.229 0.282C29.865 0.282 28.536 0.426 27.254 0.699C25.9473 0.421201 24.6149 0.281434 23.279 0.282C21.145 0.282 19.094 0.634 17.179 1.282H0V1.782H23.817C23.4508 1.93722 23.0896 2.10397 22.734 2.282ZM111.248 0C111.905 0 112.421 0.164 112.796 0.492C113.187 0.805 113.382 1.242 113.382 1.806C113.382 2.369 113.187 2.814 112.796 3.142C112.421 3.455 111.905 3.612 111.248 3.612C110.592 3.612 110.068 3.455 109.677 3.142C109.302 2.814 109.114 2.369 109.114 1.806C109.114 1.243 109.302 0.806 109.677 0.492C110.068 0.164 110.592 0 111.248 0ZM113.077 5.792V15.993C113.077 16.65 113.187 17.096 113.406 17.33C113.64 17.565 114.031 17.682 114.578 17.682V18.174C114.141 18.1526 113.703 18.137 113.265 18.127C112.664 18.0955 112.061 18.0799 111.459 18.08C110.85 18.08 110.232 18.096 109.607 18.127C109.138 18.1373 108.669 18.153 108.2 18.174V17.682C108.747 17.682 109.13 17.565 109.349 17.33C109.583 17.096 109.701 16.65 109.701 15.993V8.606C109.701 7.903 109.591 7.386 109.372 7.059C109.169 6.715 108.778 6.543 108.2 6.543V6.05C108.7 6.097 109.185 6.12 109.654 6.12C110.31 6.12 110.92 6.097 111.483 6.05C112.061 5.988 112.593 5.902 113.077 5.792Z" fill="#343019"/>
<path fill-rule="evenodd" clip-rule="evenodd" d="M119.677 7.94397V5.79197C119.193 5.90197 118.661 5.98797 118.083 6.04997C117.504 6.09697 116.894 6.11997 116.253 6.11997C115.784 6.11997 115.3 6.09697 114.799 6.04997V6.54297C115.362 6.54297 115.753 6.71497 115.972 7.05897C116.191 7.38697 116.3 7.90297 116.3 8.60597V20.332C116.3 20.957 116.191 21.379 115.972 21.598C115.769 21.817 115.409 21.926 114.893 21.926V22.419L116.136 22.349C116.707 22.3331 117.277 22.3251 117.848 22.325C118.645 22.325 119.396 22.333 120.099 22.348C120.818 22.38 121.381 22.403 121.788 22.418V21.926C121.131 21.926 120.615 21.801 120.24 21.551C119.865 21.317 119.677 20.832 119.677 20.097V17.747C119.883 17.919 120.125 18.061 120.404 18.174C120.904 18.394 121.459 18.503 122.069 18.503C122.898 18.503 123.64 18.354 124.297 18.057C124.965 17.7632 125.552 17.3128 126.009 16.744C126.493 16.15 126.861 15.423 127.111 14.563C127.377 13.703 127.51 12.703 127.51 11.561C127.51 10.264 127.322 9.18497 126.947 8.32497C126.572 7.44897 126.071 6.80097 125.446 6.37897C124.821 5.9412 124.075 5.71133 123.312 5.72197C122.405 5.72197 121.608 5.95597 120.92 6.42497C120.379 6.78997 119.965 7.29597 119.677 7.94497V7.94397ZM119.677 8.74997V17.251C119.807 17.405 119.964 17.533 120.146 17.635C120.443 17.791 120.779 17.869 121.155 17.869C121.858 17.869 122.413 17.635 122.82 17.166C123.226 16.681 123.515 16.009 123.687 15.149C123.875 14.274 123.969 13.234 123.969 12.03C123.969 10.686 123.883 9.62997 123.711 8.86397C123.539 8.09797 123.304 7.55097 123.007 7.22297C122.71 6.89397 122.351 6.72997 121.928 6.72997C121.366 6.72997 120.85 6.94997 120.381 7.38697C120.028 7.72697 119.793 8.18197 119.677 8.74997Z" fill="#343019"/>
<path d="M132.894 5.72203C133.551 5.72203 134.121 5.80803 134.606 5.98003C135.106 6.13603 135.466 6.29303 135.685 6.44903C136.216 6.80903 136.545 6.57403 136.67 5.74503H137.162C137.131 6.18303 137.107 6.72303 137.092 7.36303C137.076 7.98903 137.068 8.82503 137.068 9.87303H136.576C136.496 9.28669 136.346 8.71198 136.13 8.16103C135.931 7.62633 135.601 7.15037 135.169 6.77703C134.762 6.41703 134.231 6.23703 133.574 6.23703C133.121 6.23703 132.738 6.37103 132.425 6.63703C132.112 6.88703 131.956 7.25403 131.956 7.73903C131.956 8.20803 132.097 8.62203 132.378 8.98203C132.66 9.32603 133.019 9.66203 133.457 9.99003C133.91 10.303 134.379 10.639 134.864 10.998C135.38 11.389 135.849 11.78 136.271 12.171C136.676 12.5247 137.017 12.9451 137.279 13.414C137.53 13.867 137.655 14.406 137.655 15.032C137.655 15.735 137.451 16.352 137.045 16.884C136.638 17.4 136.099 17.799 135.427 18.08C134.77 18.362 134.035 18.503 133.223 18.503C132.797 18.5079 132.371 18.4605 131.956 18.362C131.631 18.281 131.316 18.1629 131.018 18.01C130.815 17.916 130.619 17.83 130.432 17.752C130.273 17.6643 130.108 17.5861 129.939 17.518C129.783 17.471 129.642 17.525 129.517 17.682C129.408 17.838 129.322 18.057 129.259 18.338H128.767C128.798 17.838 128.822 17.228 128.837 16.509C128.853 15.79 128.861 14.836 128.861 13.649H129.353C129.447 14.493 129.619 15.243 129.869 15.899C130.119 16.541 130.455 17.049 130.877 17.424C131.315 17.784 131.862 17.964 132.519 17.964C132.785 17.964 133.043 17.909 133.293 17.799C133.543 17.689 133.746 17.509 133.903 17.259C134.075 17.009 134.161 16.689 134.161 16.299C134.161 15.61 133.934 15.039 133.48 14.586C133.043 14.133 132.48 13.64 131.792 13.109C131.292 12.702 130.815 12.304 130.362 11.913C129.942 11.5287 129.579 11.0866 129.283 10.6C128.998 10.1005 128.852 9.53333 128.861 8.95803C128.861 8.25503 129.048 7.66103 129.423 7.17603C129.806 6.68597 130.318 6.31232 130.901 6.09703C131.535 5.8453 132.212 5.71798 132.894 5.72203ZM162.005 5.98003C161.598 5.80803 161.067 5.72203 160.41 5.72203C159.675 5.71456 158.949 5.89199 158.3 6.23803C157.659 6.56603 157.151 7.12103 156.775 7.90303V5.79303C156.291 5.90203 155.759 5.98803 155.181 6.05003C154.618 6.09703 154.008 6.12003 153.352 6.12003C152.883 6.12003 152.398 6.09703 151.898 6.05003V6.54303C152.476 6.54303 152.867 6.71503 153.07 7.05903C153.289 7.38703 153.398 7.90303 153.398 8.60603V15.993C153.398 16.65 153.281 17.096 153.047 17.33C152.828 17.565 152.445 17.682 151.898 17.682V18.174C152.367 18.153 152.836 18.1374 153.305 18.127C153.914 18.0962 154.524 18.0805 155.134 18.08C155.681 18.08 156.213 18.096 156.728 18.127C157.26 18.143 157.651 18.159 157.901 18.174V17.682C157.495 17.682 157.205 17.565 157.033 17.33C156.861 17.096 156.775 16.65 156.775 15.993V9.47403C156.775 8.95803 156.877 8.49703 157.08 8.09003C157.299 7.66803 157.58 7.34003 157.924 7.10603C158.254 6.87584 158.648 6.75294 159.05 6.75403C159.41 6.75403 159.675 6.84003 159.847 7.01203C160.035 7.16803 160.16 7.39503 160.223 7.69203C160.285 7.97303 160.316 8.30903 160.316 8.70003V15.993C160.316 16.65 160.23 17.096 160.058 17.33C159.902 17.565 159.613 17.682 159.191 17.682V18.174C159.472 18.159 159.886 18.143 160.434 18.127C161.543 18.0638 162.655 18.0638 163.764 18.127C164.342 18.143 164.772 18.159 165.053 18.174V17.682C164.553 17.682 164.201 17.565 163.998 17.33C163.795 17.096 163.693 16.65 163.693 15.993V9.57803L163.692 9.50503L163.688 9.26803C163.724 8.87604 163.829 8.49348 163.998 8.13803C164.217 7.71503 164.498 7.37903 164.842 7.12903C165.186 6.87903 165.562 6.75403 165.968 6.75403C166.374 6.75403 166.672 6.84003 166.859 7.01203C167.062 7.16803 167.195 7.39503 167.258 7.69203C167.336 7.97303 167.375 8.30903 167.375 8.70003V15.993C167.375 16.65 167.289 17.096 167.117 17.33C166.961 17.565 166.672 17.682 166.249 17.682V18.174C166.531 18.159 166.945 18.143 167.492 18.127C168.047 18.0956 168.602 18.0799 169.157 18.08C169.736 18.08 170.322 18.096 170.916 18.127C171.51 18.143 171.956 18.159 172.253 18.174V17.682C171.706 17.682 171.315 17.565 171.08 17.33C170.861 17.096 170.752 16.65 170.752 15.993V9.68503C170.752 8.90303 170.697 8.27803 170.588 7.80903C170.478 7.32403 170.299 6.93403 170.048 6.63703C169.798 6.35503 169.47 6.13703 169.063 5.98003C168.657 5.80803 168.125 5.72203 167.469 5.72203C166.672 5.72203 165.921 5.88603 165.218 6.21403C164.544 6.53603 163.998 7.15003 163.579 8.05603C163.565 7.97325 163.548 7.89088 163.529 7.80903C163.42 7.32403 163.24 6.93403 162.99 6.63703C162.74 6.35503 162.411 6.13703 162.005 5.98003ZM150.058 15.618V5.79203C149.573 5.90203 149.042 5.98803 148.463 6.05003C147.901 6.09703 147.291 6.12003 146.634 6.12003C146.165 6.12003 145.681 6.09703 145.18 6.05003V6.54303C145.759 6.54303 146.15 6.71503 146.353 7.05903C146.572 7.38703 146.681 7.90303 146.681 8.60603V14.75C146.681 15.266 146.572 15.735 146.353 16.157C146.167 16.5434 145.884 16.8749 145.532 17.119C145.204 17.3538 144.809 17.4771 144.406 17.471C144.016 17.471 143.719 17.392 143.515 17.236C143.304 17.0516 143.157 16.8057 143.093 16.533C143.027 16.1931 142.995 15.8473 142.999 15.501V5.79203C142.515 5.90203 141.983 5.98803 141.405 6.05003C140.842 6.09703 140.232 6.12003 139.576 6.12003C139.107 6.12003 138.622 6.09703 138.122 6.05003V6.54303C138.7 6.54303 139.091 6.71503 139.294 7.05903C139.513 7.38703 139.622 7.90303 139.622 8.60603V14.539C139.622 15.305 139.677 15.931 139.787 16.415C139.896 16.9 140.084 17.291 140.349 17.588C140.584 17.854 140.904 18.073 141.311 18.245C141.717 18.416 142.249 18.503 142.906 18.503C143.719 18.503 144.453 18.338 145.11 18.01C145.782 17.666 146.306 17.103 146.681 16.322V18.432C147.205 18.3031 147.738 18.2168 148.276 18.174C148.839 18.127 149.448 18.104 150.105 18.104C150.59 18.104 151.074 18.127 151.559 18.174V17.682C150.996 17.682 150.605 17.518 150.386 17.189C150.167 16.845 150.058 16.322 150.058 15.619V15.618Z" fill="#343019"/>
<path fill-rule="evenodd" clip-rule="evenodd" d="M104.696 6.355C103.836 5.933 102.835 5.722 101.694 5.722C100.584 5.722 99.591 5.933 98.716 6.355C97.856 6.777 97.176 7.457 96.676 8.395C96.191 9.333 95.948 10.576 95.948 12.124C95.948 13.672 96.191 14.914 96.675 15.853C97.175 16.775 97.855 17.447 98.715 17.869C99.591 18.291 100.584 18.503 101.694 18.503C102.835 18.503 103.836 18.291 104.696 17.869C105.555 17.447 106.228 16.775 106.712 15.853C107.197 14.915 107.439 13.672 107.439 12.124C107.439 10.576 107.197 9.334 106.712 8.395C106.228 7.457 105.555 6.777 104.696 6.355ZM100.123 7.598C100.545 6.66 101.069 6.191 101.694 6.191C102.335 6.191 102.859 6.66 103.265 7.598C103.687 8.52 103.898 10.029 103.898 12.124C103.898 14.219 103.687 15.728 103.265 16.65C102.859 17.572 102.335 18.034 101.694 18.034C101.069 18.034 100.545 17.572 100.123 16.65C99.701 15.728 99.49 14.219 99.49 12.124C99.49 10.029 99.7 8.52 100.123 7.598ZM88.301 22.583C87.331 22.583 86.464 22.497 85.698 22.325C84.948 22.169 84.354 21.919 83.916 21.575C83.494 21.246 83.283 20.84 83.283 20.355C83.283 19.87 83.501 19.433 83.939 19.042C84.377 18.667 85.026 18.37 85.886 18.151L86.096 18.526C85.8275 18.7276 85.6041 18.9831 85.44 19.276C85.315 19.558 85.252 19.847 85.252 20.144C85.252 20.801 85.549 21.301 86.144 21.644C86.754 22.004 87.574 22.184 88.606 22.184C89.309 22.184 89.935 22.09 90.482 21.903C91.045 21.715 91.482 21.433 91.795 21.059C92.124 20.683 92.288 20.222 92.288 19.675C92.288 19.206 92.116 18.807 91.772 18.479C91.428 18.166 90.74 18.01 89.708 18.01H88.254C87.614 18.01 87.05 17.94 86.566 17.799C86.096 17.659 85.729 17.439 85.463 17.142C85.198 16.83 85.065 16.439 85.065 15.97C85.065 15.313 85.323 14.735 85.839 14.234C86.243 13.842 86.801 13.469 87.513 13.116C87.0449 13.0578 86.5851 12.9454 86.143 12.781C85.44 12.515 84.885 12.108 84.479 11.561C84.072 11.014 83.869 10.311 83.869 9.451C83.869 8.591 84.072 7.887 84.479 7.34C84.885 6.777 85.44 6.37 86.144 6.12C86.847 5.855 87.644 5.722 88.535 5.722C89.427 5.722 90.224 5.855 90.927 6.121C91.391 6.285 91.789 6.518 92.124 6.818C92.323 6.531 92.565 6.275 92.85 6.05C93.382 5.644 93.953 5.44 94.562 5.44C95.062 5.44 95.438 5.581 95.688 5.863C95.954 6.128 96.087 6.48 96.087 6.918C96.087 7.387 95.961 7.738 95.711 7.973C95.461 8.193 95.18 8.302 94.867 8.302C94.5918 8.29836 94.3265 8.1986 94.117 8.02C93.897 7.832 93.773 7.551 93.742 7.176C93.715 6.84 93.809 6.424 94.024 5.926C93.568 6.12 93.216 6.341 92.968 6.59C92.781 6.77026 92.6177 6.97356 92.482 7.195C92.52 7.242 92.557 7.291 92.592 7.34C92.999 7.887 93.202 8.59 93.202 9.45C93.202 10.31 92.999 11.014 92.592 11.561C92.186 12.108 91.631 12.515 90.927 12.781C90.224 13.046 89.427 13.179 88.535 13.179C88.4016 13.1791 88.2682 13.1761 88.135 13.17C87.924 13.313 87.721 13.465 87.527 13.625C87.4065 13.7193 87.3098 13.8405 87.2447 13.9789C87.1796 14.1173 87.1478 14.2691 87.152 14.422C87.152 14.922 87.465 15.172 88.09 15.172H90.646C91.506 15.172 92.272 15.274 92.944 15.477C93.632 15.681 94.171 16.017 94.562 16.486C94.969 16.939 95.172 17.533 95.172 18.268C95.172 19.034 94.922 19.745 94.422 20.402C93.937 21.059 93.187 21.582 92.17 21.973C91.154 22.38 89.864 22.583 88.301 22.583ZM88.535 12.757C88.958 12.757 89.285 12.523 89.52 12.054C89.755 11.569 89.872 10.701 89.872 9.451C89.872 8.2 89.755 7.34 89.52 6.871C89.286 6.386 88.958 6.144 88.536 6.144C88.129 6.144 87.801 6.386 87.551 6.871C87.316 7.34 87.199 8.2 87.199 9.451C87.199 10.701 87.316 11.569 87.551 12.054C87.801 12.523 88.129 12.757 88.535 12.757ZM80.247 6.355C79.387 5.933 78.387 5.722 77.246 5.722C76.136 5.722 75.143 5.933 74.268 6.355C73.408 6.777 72.728 7.457 72.228 8.395C71.743 9.333 71.5 10.576 71.5 12.124C71.5 13.672 71.743 14.914 72.227 15.853C72.727 16.775 73.407 17.447 74.267 17.869C75.143 18.291 76.136 18.503 77.246 18.503C78.387 18.503 79.388 18.291 80.247 17.869C81.107 17.447 81.779 16.775 82.264 15.853C82.749 14.915 82.991 13.672 82.991 12.124C82.991 10.576 82.749 9.334 82.264 8.395C81.78 7.457 81.107 6.777 80.247 6.355ZM75.674 7.598C76.097 6.66 76.62 6.191 77.246 6.191C77.886 6.191 78.41 6.66 78.816 7.598C79.239 8.52 79.45 10.029 79.45 12.124C79.45 14.219 79.239 15.728 78.817 16.65C78.41 17.572 77.887 18.034 77.246 18.034C76.62 18.034 76.096 17.572 75.674 16.65C75.252 15.728 75.041 14.219 75.041 12.124C75.041 10.029 75.252 8.52 75.674 7.598Z" fill="#343019"/>
<path d="M65.1841 1.57098V2.04098C64.6531 2.05598 64.2461 2.11798 63.9651 2.22798C63.8365 2.27153 63.7202 2.34544 63.6262 2.44344C63.5322 2.54144 63.4632 2.66066 63.4251 2.79098C63.3321 3.05598 63.2851 3.47898 63.2851 4.05698V15.97C63.2851 16.454 63.3161 16.814 63.3791 17.049C63.4571 17.283 63.5981 17.439 63.8011 17.518C64.0201 17.596 64.3411 17.635 64.7621 17.635H65.9121C66.4421 17.635 66.9431 17.51 67.4121 17.26C67.8821 17.01 68.3031 16.658 68.6781 16.204C69.0736 15.6998 69.3902 15.1383 69.6171 14.539C69.8671 13.899 70.0541 13.187 70.1791 12.405H70.7191C70.6721 12.937 70.6491 13.625 70.6491 14.469C70.6491 14.829 70.6561 15.352 70.6721 16.04C70.6881 16.728 70.7341 17.44 70.8121 18.174C69.9138 18.1409 69.015 18.1252 68.1161 18.127C67.1161 18.112 66.2241 18.104 65.4421 18.104H63.9421C63.3321 18.104 62.6751 18.112 61.9721 18.127C61.2681 18.127 60.5571 18.135 59.8381 18.151C59.1181 18.151 58.4381 18.159 57.7981 18.174V17.705C58.2981 17.674 58.6731 17.611 58.9231 17.518C59.1731 17.424 59.3371 17.236 59.4161 16.955C59.5091 16.673 59.5561 16.251 59.5561 15.688V4.05698C59.5561 3.47798 59.5091 3.05698 59.4161 2.79098C59.3853 2.6609 59.3217 2.54086 59.2314 2.44231C59.1411 2.34376 59.027 2.26997 58.9001 2.22798C58.6501 2.11798 58.2821 2.05598 57.7981 2.03998V1.57098C59.0326 1.61672 60.2678 1.64006 61.5031 1.64098C62.1911 1.64098 62.8631 1.63398 63.5191 1.61798C64.1921 1.60198 64.7471 1.58698 65.1841 1.57098Z" fill="#343019"/>
<path fill-rule="evenodd" clip-rule="evenodd" d="M169.871 37.553C169.838 37.385 169.86 37.166 169.939 36.896L173.242 24.929C172.713 25.1459 172.166 25.3149 171.607 25.434C171.034 25.547 170.377 25.608 169.635 25.62L169.517 25.974C170.068 25.974 170.411 26.064 170.546 26.244C170.68 26.424 170.697 26.704 170.596 27.086L169.814 30.035C169.765 29.8927 169.68 29.7654 169.568 29.665C169.377 29.485 169.113 29.395 168.776 29.395C168.102 29.395 167.478 29.547 166.905 29.85C166.329 30.1649 165.81 30.5754 165.371 31.064C164.91 31.5591 164.519 32.1149 164.208 32.716C163.902 33.3009 163.659 33.9167 163.483 34.553C163.323 35.1011 163.238 35.6682 163.23 36.239C163.23 36.778 163.315 37.222 163.483 37.57C163.652 37.907 163.882 38.16 164.174 38.328C164.466 38.486 164.792 38.564 165.152 38.564C165.702 38.564 166.197 38.402 166.635 38.076C167.073 37.739 167.483 37.222 167.866 36.525C168.026 36.241 168.187 35.922 168.347 35.568L168.236 35.986C168.134 36.3153 168.067 36.654 168.034 36.997C168.012 37.289 168.034 37.537 168.102 37.739C168.236 38.289 168.652 38.565 169.349 38.565C169.607 38.565 169.871 38.514 170.141 38.413C170.411 38.312 170.663 38.138 170.899 37.89C171.147 37.643 171.343 37.29 171.489 36.828L171.894 35.598H171.574L171.304 36.356C171.102 36.93 170.911 37.317 170.731 37.519C170.562 37.711 170.388 37.806 170.208 37.806C170.017 37.806 169.905 37.722 169.871 37.553ZM168.972 33.213C168.845 33.624 168.707 34.015 168.557 34.384C168.276 35.104 167.978 35.722 167.663 36.239C167.36 36.744 167.062 37.137 166.77 37.419C166.478 37.688 166.219 37.823 165.995 37.823C165.781 37.823 165.624 37.722 165.523 37.52C165.433 37.306 165.388 36.986 165.388 36.559C165.388 35.952 165.455 35.334 165.59 34.705C165.725 34.065 165.91 33.452 166.146 32.868C166.363 32.3199 166.634 31.7947 166.955 31.3C167.259 30.828 167.579 30.457 167.916 30.187C168.264 29.917 168.607 29.783 168.944 29.783C169.169 29.783 169.349 29.862 169.484 30.019C169.578 30.121 169.65 30.269 169.7 30.465L168.972 33.213Z" fill="#343019"/>
<path d="M158.655 38.328H156.582L158.604 31.064C158.706 30.727 158.739 30.491 158.706 30.356C158.672 30.221 158.571 30.154 158.402 30.154C158.189 30.154 157.992 30.261 157.812 30.474C157.632 30.687 157.447 31.064 157.256 31.604L156.969 32.395H156.649L157.087 31.131C157.245 30.681 157.441 30.334 157.677 30.086C157.913 29.828 158.172 29.648 158.453 29.547C158.734 29.446 159.02 29.395 159.312 29.395C159.672 29.395 159.936 29.468 160.104 29.615C160.284 29.761 160.397 29.952 160.442 30.188C160.499 30.4423 160.51 30.7047 160.475 30.963C160.453 31.233 160.408 31.497 160.34 31.755L160.069 32.812L160.138 32.632C160.453 31.834 160.756 31.199 161.048 30.727C161.352 30.244 161.672 29.901 162.009 29.699C162.339 29.4983 162.719 29.3931 163.105 29.395C163.509 29.395 163.818 29.513 164.032 29.749C164.257 29.985 164.369 30.277 164.369 30.626C164.369 30.906 164.301 31.171 164.167 31.418C164.036 31.6498 163.851 31.8464 163.627 31.991C163.414 32.126 163.167 32.193 162.886 32.193C162.605 32.193 162.38 32.12 162.211 31.974C162.054 31.828 161.975 31.614 161.975 31.334C161.975 31.086 162.032 30.862 162.144 30.659C162.252 30.4613 162.402 30.2892 162.582 30.154C162.762 30.008 162.959 29.907 163.172 29.85C163.148 29.8268 163.12 29.8097 163.088 29.8C163.05 29.7881 163.01 29.7823 162.97 29.783C162.723 29.783 162.47 29.873 162.211 30.053C161.953 30.221 161.683 30.497 161.402 30.879C161.121 31.261 160.835 31.766 160.543 32.395C160.213 33.1388 159.921 33.8984 159.666 34.671C159.539 35.045 159.411 35.447 159.283 35.878L158.655 38.328Z" fill="#343019"/>
<path fill-rule="evenodd" clip-rule="evenodd" d="M152.357 35.724L152.286 35.986C152.179 36.3666 152.106 36.7557 152.067 37.149C152.033 37.509 152.089 37.812 152.235 38.059C152.46 38.396 152.842 38.565 153.381 38.565C153.64 38.565 153.898 38.514 154.157 38.413C154.426 38.312 154.679 38.138 154.915 37.89C155.151 37.632 155.348 37.272 155.505 36.812L155.927 35.582H155.606L155.353 36.34C155.151 36.924 154.955 37.312 154.764 37.503C154.573 37.693 154.387 37.789 154.207 37.789C154.061 37.789 153.966 37.744 153.921 37.654C153.886 37.5395 153.874 37.4191 153.887 37.3C153.909 37.1571 153.943 37.0163 153.988 36.879L156.163 29.395C155.824 29.4759 155.481 29.5324 155.134 29.564C154.786 29.598 154.41 29.62 154.005 29.631L153.761 30.533C153.751 30.304 153.684 30.0811 153.567 29.884C153.479 29.7304 153.351 29.6037 153.196 29.5175C153.042 29.4313 152.867 29.389 152.69 29.395C152.196 29.395 151.702 29.547 151.207 29.85C150.681 30.1806 150.209 30.59 149.808 31.064C149.354 31.5809 148.959 32.1459 148.628 32.749C148.296 33.3538 148.031 33.9925 147.836 34.654C147.652 35.2492 147.556 35.8681 147.55 36.491C147.55 37.121 147.696 37.626 147.988 38.008C148.28 38.379 148.729 38.564 149.336 38.564C149.763 38.564 150.173 38.441 150.567 38.194C150.971 37.946 151.353 37.536 151.713 36.964C151.936 36.619 152.15 36.206 152.357 35.724ZM150.904 37.435C150.645 37.671 150.415 37.789 150.213 37.789C150.044 37.789 149.915 37.705 149.825 37.536C149.746 37.356 149.707 37.059 149.707 36.643C149.707 36.047 149.774 35.435 149.909 34.806C150.044 34.176 150.224 33.57 150.449 32.986C150.685 32.401 150.943 31.879 151.224 31.418C151.505 30.958 151.786 30.592 152.067 30.322C152.359 30.052 152.634 29.918 152.893 29.918C153.162 29.918 153.353 30.053 153.466 30.322C153.578 30.566 153.607 30.893 153.553 31.302L153.055 33.144L153.112 32.851C152.932 33.57 152.718 34.233 152.471 34.84C152.256 35.3827 151.997 35.9068 151.696 36.407C151.426 36.845 151.162 37.188 150.904 37.435ZM145.284 36.896C145.205 37.166 145.183 37.385 145.217 37.553C145.25 37.722 145.363 37.806 145.554 37.806C145.734 37.806 145.908 37.711 146.076 37.52C146.256 37.317 146.447 36.93 146.649 36.356L146.919 35.598H147.239L146.835 36.828C146.689 37.289 146.492 37.643 146.245 37.89C146.035 38.1197 145.775 38.2986 145.486 38.413C145.233 38.5111 144.965 38.5626 144.694 38.565C143.998 38.565 143.582 38.289 143.447 37.739C143.376 37.4985 143.353 37.2463 143.38 36.997C143.402 36.705 143.469 36.367 143.582 35.986L143.693 35.568C143.532 35.922 143.371 36.241 143.211 36.525C142.829 37.222 142.419 37.739 141.981 38.075C141.554 38.3976 141.032 38.5698 140.497 38.565C140.138 38.565 139.812 38.485 139.52 38.329C139.219 38.1509 138.978 37.8865 138.829 37.57C138.66 37.222 138.576 36.778 138.576 36.239C138.576 35.722 138.66 35.159 138.829 34.553C138.997 33.935 139.239 33.323 139.553 32.716C139.864 32.1151 140.255 31.5594 140.716 31.064C141.177 30.558 141.688 30.154 142.25 29.85C142.826 29.5459 143.469 29.3895 144.121 29.395C144.458 29.395 144.722 29.485 144.913 29.665C145.023 29.762 145.106 29.885 145.16 30.035L145.941 27.086C146.043 26.704 146.026 26.423 145.891 26.243C145.756 26.063 145.413 25.973 144.863 25.973L144.981 25.62C145.642 25.6162 146.302 25.554 146.953 25.434C147.512 25.3149 148.059 25.1459 148.588 24.929L145.284 36.896ZM143.902 34.384C144.052 34.014 144.191 33.624 144.317 33.213L145.046 30.465C145.011 30.301 144.936 30.1479 144.829 30.019C144.763 29.9415 144.68 29.8801 144.586 29.8392C144.493 29.7983 144.392 29.7791 144.29 29.783C143.953 29.783 143.61 29.918 143.262 30.187C142.924 30.457 142.604 30.828 142.301 31.3C141.98 31.7942 141.709 32.3191 141.492 32.867C141.252 33.462 141.066 34.0771 140.936 34.705C140.803 35.3141 140.735 35.9356 140.733 36.559C140.733 36.986 140.778 37.306 140.868 37.519C140.969 37.722 141.127 37.823 141.34 37.823C141.565 37.823 141.823 37.688 142.115 37.418C142.408 37.138 142.705 36.744 143.009 36.238C143.359 35.6467 143.658 35.0265 143.902 34.384Z" fill="#343019"/>
<path d="M129.294 38.328H131.367L131.562 37.566L131.552 37.621C131.766 36.834 132.007 36.076 132.277 35.345C132.539 34.6474 132.831 33.9614 133.153 33.289C133.457 32.659 133.76 32.109 134.064 31.637C134.367 31.165 134.659 30.8 134.94 30.541C135.221 30.271 135.479 30.137 135.715 30.137C135.906 30.137 136.024 30.204 136.069 30.339C136.116 30.4922 136.121 30.6549 136.086 30.811C136.052 30.9937 136.007 31.174 135.951 31.351L134.418 35.986C134.26 36.458 134.17 36.862 134.148 37.199C134.125 37.536 134.187 37.812 134.333 38.025C134.446 38.194 134.603 38.323 134.805 38.413C135.019 38.513 135.272 38.565 135.564 38.565C135.833 38.565 136.103 38.514 136.373 38.413C136.654 38.323 136.912 38.154 137.148 37.907C137.395 37.66 137.598 37.3 137.755 36.828L138.176 35.598H137.856L137.586 36.356C137.373 36.941 137.171 37.328 136.98 37.519C136.8 37.711 136.626 37.806 136.457 37.806C136.277 37.806 136.165 37.733 136.12 37.586C136.075 37.43 136.103 37.199 136.204 36.896L137.856 31.94C138.002 31.502 138.075 31.092 138.075 30.71C138.086 30.317 137.98 30.002 137.755 29.766C137.541 29.519 137.159 29.396 136.609 29.396C136.193 29.396 135.794 29.486 135.412 29.665C135.03 29.845 134.659 30.159 134.3 30.609C133.94 31.047 133.569 31.643 133.187 32.395C132.933 32.9023 132.701 33.4197 132.49 33.946L133.052 31.755C133.12 31.485 133.17 31.215 133.204 30.946C133.238 30.666 133.226 30.412 133.17 30.187C133.116 29.9547 132.978 29.7505 132.783 29.614C132.592 29.468 132.311 29.395 131.94 29.395C131.49 29.395 131.08 29.519 130.709 29.766C130.339 30.013 130.035 30.468 129.799 31.131L129.361 32.395H129.681L129.968 31.603C130.17 31.053 130.355 30.676 130.524 30.474C130.704 30.261 130.9 30.154 131.114 30.154C131.271 30.154 131.367 30.199 131.401 30.289C131.445 30.379 131.457 30.491 131.434 30.626C131.409 30.7738 131.375 30.9201 131.333 31.064L129.294 38.328Z" fill="#343019"/>
<path fill-rule="evenodd" clip-rule="evenodd" d="M124.998 35.986L125.069 35.724C124.889 36.1544 124.674 36.5692 124.425 36.964C124.065 37.536 123.683 37.947 123.278 38.194C122.885 38.441 122.475 38.564 122.048 38.564C121.441 38.564 120.992 38.379 120.7 38.008C120.407 37.626 120.261 37.121 120.261 36.491C120.261 35.907 120.357 35.295 120.548 34.654C120.743 33.9925 121.008 33.3538 121.34 32.749C121.67 32.1457 122.066 31.5806 122.52 31.064C122.921 30.5901 123.393 30.1806 123.919 29.85C124.413 29.547 124.908 29.395 125.402 29.395C125.784 29.395 126.076 29.558 126.279 29.885C126.387 30.052 126.452 30.268 126.473 30.533L126.717 29.631C127.121 29.62 127.498 29.598 127.846 29.564C128.206 29.53 128.548 29.474 128.874 29.395L126.7 36.88C126.654 37.0172 126.62 37.158 126.599 37.301C126.586 37.4201 126.598 37.5405 126.633 37.655C126.678 37.745 126.773 37.79 126.919 37.79C127.099 37.79 127.284 37.695 127.475 37.504C127.666 37.313 127.863 36.924 128.065 36.341L128.318 35.582H128.638L128.217 36.812C128.06 37.273 127.863 37.632 127.627 37.892C127.417 38.1211 127.158 38.2996 126.869 38.414C126.622 38.513 126.359 38.5645 126.093 38.566C125.554 38.566 125.172 38.397 124.947 38.06C124.801 37.813 124.745 37.51 124.779 37.15C124.818 36.7568 124.892 36.3666 124.998 35.986ZM122.924 37.789C123.127 37.789 123.357 37.671 123.616 37.435C123.874 37.188 124.138 36.845 124.408 36.407C124.677 35.969 124.936 35.447 125.183 34.84C125.43 34.233 125.644 33.57 125.824 32.85L125.767 33.144L126.265 31.303C126.318 30.893 126.289 30.566 126.178 30.323C126.065 30.053 125.874 29.918 125.604 29.918C125.346 29.918 125.071 30.053 124.779 30.322C124.498 30.592 124.217 30.957 123.936 31.418C123.655 31.878 123.396 32.401 123.16 32.985C122.934 33.5769 122.753 34.1853 122.621 34.805C122.489 35.4088 122.421 36.0249 122.419 36.643C122.419 37.059 122.458 37.357 122.537 37.536C122.627 37.705 122.756 37.789 122.924 37.789Z" fill="#343019"/>
<path d="M121.43 29.968L121.481 29.631H119.473L120.267 26.867C119.935 26.9488 119.597 27.0053 119.256 27.036C118.908 27.069 118.531 27.092 118.127 27.103L117.402 29.631H115.868L115.784 29.968H117.306L115.581 35.986C115.435 36.48 115.385 36.924 115.43 37.317C115.486 37.699 115.643 38.003 115.902 38.227C116.171 38.452 116.559 38.565 117.065 38.565C117.638 38.565 118.132 38.413 118.548 38.109C118.964 37.806 119.29 37.306 119.526 36.609L119.863 35.598H119.542L119.29 36.289C119.087 36.851 118.863 37.244 118.615 37.469C118.379 37.694 118.143 37.806 117.907 37.806C117.814 37.8091 117.722 37.7908 117.637 37.7527C117.553 37.7146 117.478 37.6575 117.419 37.586C117.306 37.441 117.295 37.211 117.385 36.896L119.376 29.968H121.43ZM115.848 26.277C115.736 26.569 115.584 26.997 115.393 27.558C115.213 28.108 115.034 28.828 114.854 29.715H114.517C114.55 29.558 114.573 29.395 114.584 29.227C114.606 29.0763 114.617 28.9243 114.618 28.772C114.618 28.333 114.528 27.952 114.348 27.626C114.175 27.2841 113.898 27.0063 113.556 26.833C113.208 26.631 112.758 26.53 112.208 26.53C111.612 26.53 111.106 26.687 110.691 27.002C110.275 27.305 110.067 27.794 110.067 28.468C110.067 28.884 110.162 29.278 110.353 29.648C110.556 30.008 110.809 30.362 111.112 30.71C111.427 31.047 111.758 31.39 112.106 31.738C112.455 32.075 112.781 32.424 113.084 32.783C113.387 33.143 113.635 33.525 113.826 33.929C114.028 34.323 114.129 34.755 114.129 35.227C114.129 35.823 113.983 36.334 113.691 36.761C113.406 37.1805 113.032 37.5316 112.595 37.789C112.137 38.0508 111.643 38.2439 111.129 38.362C110.634 38.4942 110.124 38.5624 109.612 38.565C109.106 38.565 108.685 38.525 108.348 38.447C108.06 38.3927 107.782 38.296 107.522 38.16C107.301 38.039 107.082 37.9157 106.864 37.79C106.765 37.7067 106.65 37.6436 106.527 37.604C106.448 37.5645 106.363 37.5414 106.275 37.536C106.128 37.536 106.005 37.609 105.904 37.756C105.771 37.9755 105.659 38.2064 105.567 38.446H105.229C105.507 37.7606 105.739 37.0569 105.921 36.34C106.055 35.823 106.207 35.177 106.376 34.401H106.713C106.666 34.6242 106.627 34.849 106.595 35.075C106.561 35.3 106.55 35.525 106.561 35.75C106.595 36.536 106.836 37.143 107.286 37.57C107.747 37.997 108.421 38.21 109.308 38.21C110.061 38.21 110.629 38.053 111.011 37.739C111.393 37.413 111.584 36.941 111.584 36.323C111.584 35.851 111.494 35.423 111.314 35.042C111.144 34.6457 110.917 34.2764 110.64 33.946C110.354 33.6041 110.056 33.2725 109.747 32.952C109.437 32.6314 109.139 32.2995 108.853 31.957C108.577 31.6167 108.345 31.2431 108.162 30.845C107.978 30.4194 107.886 29.9596 107.893 29.496C107.893 28.935 108.011 28.446 108.247 28.03C108.485 27.6242 108.806 27.2738 109.19 27.002C109.584 26.721 110.023 26.5099 110.488 26.378C110.941 26.2351 111.412 26.1612 111.887 26.159C112.494 26.159 112.994 26.232 113.387 26.379C113.781 26.524 114.118 26.699 114.399 26.901L114.719 27.103C114.82 27.148 114.899 27.17 114.955 27.17C115.112 27.17 115.298 26.873 115.511 26.277H115.848Z" fill="#343019"/>
<path fill-rule="evenodd" clip-rule="evenodd" d="M99.578 37.553C99.544 37.385 99.567 37.166 99.646 36.896L102.949 24.929C102.42 25.1459 101.873 25.3149 101.314 25.434C100.741 25.547 100.084 25.608 99.342 25.62L99.224 25.974C99.774 25.974 100.118 26.064 100.252 26.244C100.387 26.424 100.404 26.704 100.303 27.086L99.521 30.035C99.4719 29.8927 99.3872 29.7654 99.275 29.665C99.084 29.485 98.82 29.395 98.483 29.395C97.808 29.395 97.185 29.547 96.612 29.85C96.0356 30.1649 95.5169 30.5754 95.078 31.064C94.6169 31.5591 94.2256 32.1149 93.915 32.716C93.6089 33.3009 93.3659 33.9167 93.19 34.553C93.03 35.101 92.9449 35.6682 92.937 36.239C92.937 36.778 93.022 37.222 93.19 37.57C93.359 37.907 93.589 38.16 93.881 38.328C94.173 38.486 94.499 38.564 94.859 38.564C95.409 38.564 95.904 38.402 96.342 38.076C96.78 37.739 97.19 37.222 97.572 36.525C97.732 36.241 97.893 35.922 98.054 35.568L97.944 35.986C97.8418 36.3151 97.7737 36.6539 97.741 36.997C97.7142 37.2463 97.7369 37.4985 97.808 37.739C97.943 38.289 98.358 38.565 99.056 38.565C99.314 38.565 99.578 38.514 99.848 38.413C100.118 38.312 100.37 38.138 100.606 37.89C100.854 37.643 101.05 37.29 101.196 36.828L101.601 35.598H101.281L101.011 36.356C100.809 36.93 100.618 37.317 100.438 37.519C100.269 37.711 100.095 37.806 99.915 37.806C99.725 37.806 99.612 37.722 99.578 37.553ZM98.678 33.213C98.552 33.624 98.414 34.015 98.263 34.384C97.983 35.104 97.685 35.722 97.37 36.239C97.067 36.744 96.769 37.137 96.477 37.419C96.185 37.688 95.927 37.823 95.701 37.823C95.488 37.823 95.331 37.722 95.23 37.52C95.14 37.306 95.095 36.986 95.095 36.559C95.095 35.952 95.162 35.334 95.297 34.705C95.432 34.065 95.617 33.452 95.853 32.868C96.0705 32.3198 96.3418 31.7946 96.663 31.3C96.966 30.828 97.286 30.457 97.623 30.187C97.971 29.917 98.314 29.783 98.651 29.783C98.876 29.783 99.056 29.862 99.191 30.019C99.285 30.121 99.357 30.269 99.407 30.465L98.678 33.213Z" fill="#343019"/>
<path d="M85.728 38.328H83.655L85.695 31.064C85.74 30.907 85.773 30.761 85.795 30.626C85.8201 30.513 85.8085 30.395 85.762 30.289C85.728 30.199 85.632 30.154 85.475 30.154C85.262 30.154 85.065 30.261 84.885 30.474C84.717 30.676 84.531 31.053 84.329 31.604L84.043 32.395H83.723L84.161 31.131C84.397 30.468 84.701 30.013 85.071 29.766C85.441 29.519 85.851 29.396 86.301 29.396C86.672 29.396 86.953 29.468 87.144 29.614C87.3399 29.7503 87.4782 29.9545 87.532 30.187C87.588 30.412 87.599 30.665 87.566 30.946C87.5317 31.2185 87.4809 31.4886 87.414 31.755L86.852 33.947C87.09 33.358 87.322 32.842 87.549 32.395C87.931 31.643 88.301 31.047 88.661 30.609C89.021 30.159 89.391 29.845 89.773 29.665C90.156 29.485 90.554 29.395 90.97 29.395C91.52 29.395 91.903 29.519 92.116 29.766C92.341 30.002 92.448 30.316 92.436 30.71C92.436 31.092 92.364 31.502 92.217 31.94L90.566 36.896C90.464 37.199 90.436 37.43 90.481 37.586C90.526 37.733 90.639 37.806 90.819 37.806C90.987 37.806 91.161 37.711 91.341 37.52C91.532 37.328 91.734 36.94 91.948 36.356L92.218 35.598H92.538L92.116 36.828C91.959 37.3 91.756 37.66 91.51 37.908C91.2982 38.1393 91.0312 38.313 90.734 38.413C90.4758 38.5121 90.2017 38.5636 89.925 38.565C89.633 38.565 89.38 38.514 89.167 38.413C88.964 38.323 88.807 38.193 88.695 38.025C88.549 37.812 88.487 37.536 88.509 37.199C88.532 36.862 88.622 36.458 88.779 35.986L90.313 31.351C90.369 31.171 90.414 30.991 90.448 30.811C90.4834 30.6549 90.4775 30.4922 90.431 30.339C90.386 30.204 90.268 30.137 90.077 30.137C89.841 30.137 89.582 30.272 89.302 30.541C89.021 30.8 88.728 31.165 88.425 31.637C88.0887 32.1688 87.7848 32.7205 87.515 33.289C87.212 33.919 86.919 34.603 86.638 35.345C86.368 36.075 86.128 36.834 85.914 37.621L85.924 37.566L85.728 38.328Z" fill="#343019"/>
<path fill-rule="evenodd" clip-rule="evenodd" d="M79.43 35.724L79.36 35.986C79.2539 36.3667 79.1803 36.7558 79.14 37.149C79.106 37.509 79.162 37.812 79.308 38.059C79.533 38.396 79.915 38.565 80.455 38.565C80.7432 38.5629 81.028 38.502 81.2918 38.3859C81.5555 38.2699 81.7928 38.1011 81.989 37.89C82.225 37.632 82.421 37.272 82.579 36.812L82.999 35.582H82.679L82.427 36.34C82.224 36.924 82.027 37.312 81.837 37.503C81.646 37.693 81.46 37.789 81.281 37.789C81.134 37.789 81.039 37.744 80.994 37.654C80.9589 37.5395 80.9473 37.4191 80.96 37.3C80.983 37.154 81.016 37.014 81.062 36.879L83.236 29.395C82.8979 29.4759 82.5543 29.5323 82.208 29.564C81.859 29.598 81.483 29.62 81.078 29.631L80.834 30.533C80.8236 30.304 80.757 30.0811 80.64 29.884C80.5523 29.7305 80.4244 29.6039 80.27 29.5178C80.1157 29.4316 79.9407 29.3891 79.764 29.395C79.269 29.395 78.774 29.547 78.28 29.85C77.786 30.154 77.32 30.558 76.881 31.064C76.427 31.5806 76.0313 32.1457 75.701 32.749C75.3696 33.3538 75.104 33.9925 74.909 34.654C74.7252 35.2492 74.6288 35.868 74.623 36.491C74.623 37.121 74.769 37.626 75.061 38.008C75.353 38.379 75.803 38.564 76.409 38.564C76.836 38.564 77.247 38.441 77.639 38.194C78.044 37.946 78.427 37.536 78.786 36.964C79.009 36.619 79.223 36.206 79.43 35.724ZM77.977 37.435C77.719 37.671 77.488 37.789 77.286 37.789C77.117 37.789 76.988 37.705 76.898 37.536C76.82 37.356 76.78 37.059 76.78 36.643C76.78 36.047 76.848 35.435 76.983 34.806C77.117 34.176 77.297 33.57 77.522 32.986C77.758 32.401 78.016 31.879 78.297 31.418C78.578 30.958 78.859 30.592 79.14 30.322C79.432 30.052 79.707 29.918 79.966 29.918C80.236 29.918 80.426 30.053 80.539 30.322C80.651 30.566 80.679 30.893 80.626 31.302L80.128 33.144L80.185 32.851C80.005 33.57 79.792 34.233 79.545 34.84C79.297 35.446 79.039 35.969 78.769 36.407C78.499 36.845 78.235 37.188 77.977 37.435Z" fill="#343019"/>
<path d="M70.115 38.328H68.042L70.064 31.064C70.165 30.727 70.199 30.491 70.165 30.356C70.132 30.221 70.031 30.154 69.862 30.154C69.649 30.154 69.452 30.261 69.272 30.474C69.092 30.687 68.907 31.064 68.716 31.604L68.429 32.395H68.109L68.547 31.131C68.705 30.681 68.901 30.334 69.137 30.086C69.373 29.828 69.632 29.648 69.913 29.547C70.193 29.446 70.48 29.395 70.773 29.395C71.132 29.395 71.396 29.468 71.564 29.615C71.7427 29.7584 71.8629 29.9622 71.902 30.188C71.958 30.424 71.969 30.682 71.935 30.963C71.913 31.233 71.868 31.497 71.8 31.755L71.53 32.812L71.557 32.739L71.598 32.632C71.913 31.834 72.216 31.199 72.508 30.727C72.812 30.244 73.132 29.901 73.469 29.699C73.7992 29.4983 74.1786 29.3931 74.565 29.395C74.969 29.395 75.278 29.513 75.492 29.749C75.716 29.985 75.829 30.277 75.829 30.626C75.829 30.906 75.761 31.171 75.626 31.418C75.4952 31.6497 75.3103 31.8463 75.087 31.991C74.8642 32.1283 74.6066 32.1984 74.345 32.193C74.065 32.193 73.84 32.12 73.671 31.974C73.514 31.828 73.435 31.614 73.435 31.334C73.435 31.086 73.491 30.862 73.604 30.659C73.716 30.457 73.862 30.289 74.042 30.154C74.222 30.008 74.418 29.907 74.632 29.85C74.6083 29.827 74.5795 29.8098 74.548 29.8C74.5256 29.7924 74.5025 29.7874 74.479 29.785C74.4624 29.7834 74.4457 29.7827 74.429 29.783C74.183 29.783 73.929 29.873 73.671 30.053C73.413 30.221 73.143 30.497 72.862 30.879C72.582 31.261 72.295 31.766 72.002 32.395C71.6725 33.1387 71.3802 33.8983 71.126 34.671C70.999 35.044 70.871 35.447 70.743 35.878L70.115 38.328Z" fill="#343019"/>
<path fill-rule="evenodd" clip-rule="evenodd" d="M66.962 27.019C66.4 26.614 65.501 26.412 64.265 26.412C63.883 26.412 63.501 26.418 63.118 26.429C62.748 26.44 62.321 26.446 61.838 26.446H60.995C60.691 26.434 60.405 26.429 60.135 26.429C59.9103 26.4191 59.6856 26.4078 59.461 26.395L59.377 26.732C59.815 26.732 60.113 26.788 60.27 26.901C60.439 27.001 60.517 27.159 60.506 27.373C60.4833 27.6459 60.4382 27.9165 60.371 28.182L58.146 36.542C58.046 36.946 57.933 37.25 57.809 37.452C57.697 37.6452 57.5169 37.7897 57.304 37.857C57.09 37.924 56.792 37.969 56.41 37.991L56.343 38.328C56.533 38.318 56.764 38.312 57.033 38.312C57.303 38.3 57.59 38.295 57.893 38.295C58.7413 38.2692 59.5902 38.2749 60.438 38.312C60.899 38.322 61.321 38.329 61.703 38.329C62.433 38.329 63.124 38.255 63.776 38.109C64.377 37.9727 64.9518 37.7397 65.478 37.419C65.9488 37.1386 66.3472 36.7515 66.641 36.289C66.933 35.839 67.079 35.312 67.079 34.705C67.079 34.019 66.799 33.429 66.237 32.935C65.687 32.44 64.815 32.148 63.624 32.058C64.3671 31.9513 65.0891 31.7297 65.764 31.401C66.394 31.075 66.888 30.676 67.248 30.204C67.6104 29.7559 67.8068 29.1963 67.804 28.62C67.804 27.946 67.525 27.412 66.962 27.019ZM61.582 32.278L60.455 36.542C60.388 36.822 60.343 37.07 60.321 37.283C60.309 37.497 60.365 37.66 60.489 37.773C60.613 37.885 60.843 37.941 61.18 37.941C61.978 37.941 62.63 37.789 63.135 37.486C63.6298 37.195 64.024 36.76 64.265 36.239C64.512 35.699 64.635 35.092 64.635 34.419C64.635 34.002 64.562 33.637 64.416 33.323C64.2875 33.004 64.0563 32.737 63.759 32.564C63.456 32.373 63.051 32.278 62.545 32.278H61.582ZM61.658 31.991H62.428C63.068 31.991 63.613 31.828 64.062 31.502C64.523 31.165 64.872 30.727 65.108 30.188C65.3538 29.654 65.48 29.0728 65.478 28.485C65.478 27.923 65.366 27.491 65.141 27.187C64.928 26.884 64.551 26.732 64.011 26.732C63.619 26.732 63.338 26.811 63.169 26.968C63.001 27.114 62.855 27.434 62.731 27.928L61.658 31.991Z" fill="#343019"/>
</g>
<defs>
<clipPath id="clip0_290_5203">
<rect width="174" height="39" fill="white"/>
</clipPath>
</defs>
</svg>
